<?xml version="1.0" encoding="UTF-8"?>
<svg id="Capa_1" data-name="Capa 1" xmlns="http://www.w3.org/2000/svg" viewBox="0 0 491.9 123.03">
  <defs>
    <style>
      .cls-1 {
        fill: #010101;
      }
    </style>
  </defs>
  <path class="cls-1" d="M222.44,44.37l6.8,11.8h-39.45V3.05h13.2v41.33h19.45Z"/>
  <path class="cls-1" d="M282.45,3.05v53.12h-13.12v-19.92h-21.64v19.92h-13.2V3.05h13.2v21.33h21.64V3.05h13.12Z"/>
  <path class="cls-1" d="M346.83,29.61c0,15.47-12.11,27.58-28.12,27.58s-28.12-12.11-28.12-27.58,12.11-27.58,28.12-27.58,28.12,12.11,28.12,27.58ZM333.47,29.61c0-8.36-6.17-15.23-14.76-15.23s-14.76,6.87-14.76,15.23,6.17,15.23,14.76,15.23,14.76-6.87,14.76-15.23Z"/>
  <path class="cls-1" d="M395.18,14.84h-16.95v41.33h-13.12V14.84h-16.95V3.05h47.03v11.8Z"/>
  <path class="cls-1" d="M443.7,19.53h-13.28c-.7-3.98-3.12-6.72-8.75-6.72-4.69,0-7.73,1.8-7.73,5.23,0,3.05,2.19,4.37,6.41,5.23l7.42,1.56c9.76,2.03,16.01,6.01,16.01,15.15,0,10.62-8.75,17.19-22.03,17.19-11.95,0-22.73-5.7-23.98-18.83h13.28c.86,4.69,4.84,7.66,11.09,7.66,4.69,0,7.5-1.8,7.5-4.76,0-1.87-1.02-3.83-5.62-4.69l-8.75-1.87c-10.47-2.27-15.39-7.03-15.39-15.47,0-10.62,8.59-17.19,21.09-17.19,8.59,0,21.41,3.2,22.73,17.5Z"/>
  <path class="cls-1" d="M464.95,14.53v9.69h23.59v11.25h-23.59v9.22h26.95v11.48h-40.15V3.05h40.15v11.48h-26.95Z"/>
  <path class="cls-1" d="M282.42,120.9l-8.78-15.39h-10.08v15.39h-13.2v-53.12h23.2c13.2,0,22.03,7.19,22.03,18.67,0,6.95-3.36,12.58-8.98,15.86l11.2,18.59h-15.39ZM263.56,93.63h9.77c5.08,0,9.06-2.81,9.06-7.19s-3.98-7.03-9.06-7.03h-9.77v14.22Z"/>
  <path class="cls-1" d="M357.54,94.34c0,15.47-12.11,27.58-28.12,27.58s-28.12-12.11-28.12-27.58,12.11-27.58,28.12-27.58,28.12,12.11,28.12,27.58ZM344.18,94.34c0-8.36-6.17-15.23-14.76-15.23s-14.76,6.87-14.76,15.23,6.17,15.23,14.76,15.23,14.76-6.87,14.76-15.23Z"/>
  <path class="cls-1" d="M413.79,96.13c0,16.48-9.53,25.78-24.76,25.78s-24.69-9.3-24.69-25.78v-28.36h13.28v28.59c0,8.12,4.45,13.2,11.41,13.2s11.48-5.08,11.48-13.2v-28.59h13.28v28.36Z"/>
  <path class="cls-1" d="M466.29,87.23c0,12.42-9.06,20.16-23.51,20.16h-7.19v13.51h-13.2v-53.12h21.4c13.91,0,22.5,7.5,22.5,19.45ZM453.17,87.23c0-4.76-3.83-7.89-9.61-7.89h-7.97v16.48h7.97c5.78,0,9.61-3.36,9.61-8.59Z"/>
  <polygon class="cls-1" points="71.02 0 0 123.03 142.04 123.03 125.33 94.07 49.18 94.37 87.34 28.29 71.02 0"/>
  <path class="cls-1" d="M239.96,91.05v29.84h-10.39v-6.48c-3.83,4.69-9.37,7.5-16.79,7.5-16.64,0-28.28-11.8-28.28-27.03,0-16.56,12.19-28.12,28.36-28.12,13.05,0,24.3,7.26,26.56,19.92h-13.91c-2.27-6.17-7.58-7.97-12.34-7.97-9.14,0-15.31,6.48-15.31,15.86,0,8.36,6.01,15.31,15.39,15.31,6.17,0,10.86-3.12,13.51-8.28l-15.23-.16v-10.39h28.43Z"/>
</svg>