<svg width="101" height="49" viewBox="0 0 101 49" fill="none" xmlns="http://www.w3.org/2000/svg">
<g clip-path="url(#clip0_4103_63)">
<path d="M65.1163 8.51842C65.1163 8.51842 65.1163 8.56205 65.1163 8.58386V16.0116C65.1163 21.7432 60.361 26.406 54.5157 26.406C48.6704 26.406 43.9152 21.7432 43.9152 16.0116V14.1083C43.1476 14.441 42.2967 14.6318 41.4013 14.6318C40.5058 14.6318 39.6605 14.4464 38.893 14.1137V16.017C38.893 19.2346 41.2011 21.9287 44.2767 22.5994C45.2444 24.0392 46.5125 25.2608 47.9974 26.1824C47.28 26.3351 46.5291 26.4169 45.7672 26.4169C39.9219 26.4169 35.1666 21.7541 35.1666 16.0225V8.61113C35.1666 8.58386 35.1666 8.55659 35.1666 8.52933V0H38.893V8.56205C38.9152 9.89816 40.0275 10.9834 41.4013 10.9834C42.775 10.9834 43.9096 9.8818 43.9096 8.52387V0H47.6359V16.0116C47.6359 19.7309 50.7226 22.7576 54.5157 22.7576C58.3088 22.7576 61.3955 19.7309 61.3955 16.0116V14.1083C60.628 14.441 59.7826 14.6264 58.8872 14.6264C57.9917 14.6264 57.1464 14.4355 56.3789 14.1028V16.0061C56.3789 17.8603 55.8783 19.6055 55.0051 21.1161C54.8438 21.1324 54.6826 21.1379 54.5157 21.1379C53.2977 21.1379 52.1742 20.7234 51.2844 20.0363C52.1464 18.9129 52.6525 17.5168 52.6525 16.0007V0H56.3733V8.51842C56.3733 9.87635 57.4968 10.978 58.8816 10.978C60.2665 10.978 61.3677 9.89271 61.3899 8.55114V0H65.1163V8.51842ZM5.75095 49C7.54737 49 8.54291 48.3292 9.20475 47.3967H9.46615C9.46615 48.0947 10.0334 48.6946 10.8399 48.6946H13.9655V45.8642H13.4706C13.1368 45.8642 12.9033 45.6788 12.9033 45.3516V36.4678H9.44946V37.6021H9.18806C8.45392 36.7677 7.31934 36.1624 5.73426 36.1624C2.54186 36.1624 0.0057373 38.8782 0.0057373 42.5648C0.0057373 46.2514 2.55855 48.9891 5.75651 48.9891L5.75095 49ZM6.50733 45.7497C4.84996 45.7497 3.50403 44.5226 3.50403 42.5921C3.50403 40.6615 4.82771 39.4345 6.48509 39.4345C8.14247 39.4345 9.48839 40.5688 9.48839 42.5921C9.48839 44.31 8.30375 45.7497 6.50733 45.7497ZM16.3237 48.6946H19.7775V41.5505C19.7775 40.2743 20.6284 39.44 21.6963 39.44C22.7641 39.44 23.615 40.138 23.615 41.2942V48.6946H27.0466V41.5941C27.0466 40.2253 27.8975 39.4345 28.9876 39.4345C30.0777 39.4345 30.8563 40.1762 30.8563 41.5941V48.6946H34.3101V40.438C34.3101 38.0493 32.4637 36.1678 29.8831 36.1678C28.1812 36.1678 27.0688 37.0022 26.4293 37.9566H26.1679C25.5505 36.915 24.5105 36.1678 22.8809 36.1678C21.4126 36.1678 20.4671 36.9313 20.0445 37.5803H19.7831V36.4678H16.3293V48.6946H16.3237ZM36.9074 48.6946H40.3612V41.5505C40.3612 40.2743 41.2122 39.44 42.28 39.44C43.3479 39.44 44.1988 40.138 44.1988 41.2942V48.6946H47.6304V41.5941C47.6304 40.2253 48.4813 39.4345 49.5714 39.4345C50.6615 39.4345 51.4401 40.1762 51.4401 41.5941V48.6946H54.8939V40.438C54.8939 38.0493 53.0474 36.1678 50.4668 36.1678C48.7649 36.1678 47.6526 37.0022 47.013 37.9566H46.7516C46.1343 36.915 45.0942 36.1678 43.4647 36.1678C41.9964 36.1678 41.0509 36.9313 40.6282 37.5803H40.3668V36.4678H36.913V48.6946H36.9074ZM62.6469 49C64.4433 49 65.4388 48.3292 66.1007 47.3967H66.3621C66.3621 48.0947 66.9294 48.6946 67.7358 48.6946H70.8615V45.8642H70.3665C70.0328 45.8642 69.7992 45.6788 69.7992 45.3516V36.4678H66.3454V37.6021H66.084C65.3498 36.7677 64.2153 36.1624 62.6302 36.1624C59.4378 36.1624 56.9072 38.8782 56.9072 42.5648C56.9072 46.2514 59.46 48.9891 62.658 48.9891L62.6469 49ZM63.4033 45.7497C61.7459 45.7497 60.4 44.5226 60.4 42.5921C60.4 40.6615 61.7236 39.4345 63.381 39.4345C65.0384 39.4345 66.3843 40.5688 66.3843 42.5921C66.3843 44.31 65.1997 45.7497 63.4033 45.7497ZM79.115 49C82.1461 49 84.6044 47.4457 85.383 44.4081L82.1628 43.6446C81.7846 44.9916 80.6723 45.777 79.204 45.777C77.3353 45.777 76.1284 44.3863 76.1284 42.5975C76.1284 40.8088 77.313 39.3963 79.204 39.3963C80.6723 39.3963 81.8068 40.2089 82.185 41.5996L85.3774 40.8088C84.571 37.7439 82.135 36.1678 79.1094 36.1678C75.1829 36.1678 72.6245 39.02 72.6245 42.5921C72.6245 46.1642 75.1773 48.9945 79.1094 48.9945L79.115 49ZM92.7856 49C94.582 49 95.5775 48.3292 96.2394 47.3967H96.5008C96.5008 48.0947 97.0681 48.6946 97.8745 48.6946H101V45.8642H100.505C100.171 45.8642 99.9379 45.6788 99.9379 45.3516V36.4678H96.4841V37.6021H96.2227C95.4886 36.7677 94.354 36.1624 92.7689 36.1624C89.5765 36.1624 87.0459 38.8782 87.0459 42.5648C87.0459 46.2514 89.5988 48.9891 92.7967 48.9891L92.7856 49ZM93.542 45.7497C91.8846 45.7497 90.5387 44.5226 90.5387 42.5921C90.5387 40.6615 91.8624 39.4345 93.5197 39.4345C95.1771 39.4345 96.523 40.5688 96.523 42.5921C96.523 44.31 95.3384 45.7497 93.542 45.7497Z" fill="#1D1D1B"/>
</g>
<defs>
<clipPath id="clip0_4103_63">
<rect width="101" height="49" fill="white"/>
</clipPath>
</defs>
</svg>
