<svg width="90" height="28" viewBox="0 0 90 28" fill="none" xmlns="http://www.w3.org/2000/svg">
<g clip-path="url(#clip0_6045_183)">
<path d="M6.19355 21.9752C2.31762 21.9752 0 20.3724 0 17.6835C0 14.9945 2.39206 13.3242 7.31017 12.7642L12.6551 12.2186C13.1514 12.1704 13.3846 11.929 13.3846 11.4607C13.3846 9.27864 11.3598 7.86416 8.22829 7.86416C5.32506 7.86416 2.55583 9.44278 1.92556 11.4607L1.84615 11.7069L0.382134 10.6738L0.426799 10.5386C1.27543 7.96071 4.6402 6.02002 8.24814 6.02002C12.397 6.02002 15.1811 8.2745 15.1811 11.6297V21.4007H13.464L13.3747 18.6876C12.0744 20.7007 9.33499 21.9752 6.18859 21.9752H6.19355ZM7.37469 14.5504C3.64268 14.98 1.83127 15.989 1.83127 17.6304C1.83127 19.2717 3.46898 20.1648 6.32754 20.1648C10.402 20.1648 13.3598 17.8814 13.3598 14.7338V13.9421L7.37469 14.5504Z" fill="#1D1D1B"/>
<path d="M31.6129 21.4055V12.6676C31.6129 9.66002 29.7965 7.86898 26.7494 7.86898C22.8834 7.86898 20.4814 10.2924 20.4814 14.1883V21.4055H18.6501V6.5945H20.3673L20.4566 9.40898C21.6824 7.24623 24.0298 6.02002 27.0075 6.02002C31.0323 6.02002 33.4392 8.46278 33.4392 12.5469V21.4007H31.608L31.6129 21.4055Z" fill="#1D1D1B"/>
<path d="M44.8933 21.9752C39.9554 21.9752 36.5062 18.7021 36.5062 14.0145C36.5062 9.3269 39.9454 6.02483 44.8685 6.02483C47.7916 6.02483 50.3176 7.32345 51.6377 9.45724V0H53.469V21.4055H51.7767L51.6874 18.4945C50.3772 20.6621 47.8412 21.98 44.8983 21.98L44.8933 21.9752ZM44.9975 7.8931C41.1365 7.8931 38.3325 10.4662 38.3325 14.0097C38.3325 17.5531 41.1365 20.1262 44.9975 20.1262C48.8586 20.1262 51.6626 17.5531 51.6626 14.0097C51.6626 10.4662 48.8586 7.8931 44.9975 7.8931Z" fill="#1D1D1B"/>
<path d="M70.0199 21.4055V12.6676C70.0199 9.66 68.2035 7.86897 65.1564 7.86897C61.2904 7.86897 58.8884 10.2924 58.8884 14.1883V21.4055H57.0571V0H58.8884V9.37517C60.1192 7.23655 62.4566 6.02483 65.4194 6.02483C69.4442 6.02483 71.8512 8.46759 71.8512 12.5517V21.4055H70.0199Z" fill="#1D1D1B"/>
<path d="M81.7965 28C79.3498 28 76.9479 27.2662 75.196 25.9917L75.0173 25.8614L76.3821 24.4807L76.5111 24.5724C77.9801 25.5959 79.856 26.1607 81.7965 26.1607C85.727 26.1607 88.1687 23.9352 88.1687 20.3579V19.1366C86.9776 21.2655 84.7493 22.5545 82.1935 22.5545C78.0148 22.5545 75.2059 19.4793 75.2059 14.9076V6.59448H77.0372V14.8448C77.0372 18.3497 79.1513 20.7055 82.2977 20.7055C85.6972 20.7055 88.1687 17.9876 88.1687 14.2414V6.59448H90V20.3531C90 25.0697 86.8585 28 81.7965 28Z" fill="#1D1D1B"/>
</g>
<defs>
<clipPath id="clip0_6045_183">
<rect width="90" height="28" fill="white"/>
</clipPath>
</defs>
</svg>
