<svg width="107" height="20" viewBox="0 0 107 20" fill="none" xmlns="http://www.w3.org/2000/svg">
<g clip-path="url(#clip0_4104_117)">
<path d="M11.1581 0.574227L11.3856 6.37267L11.1621 6.36774C10.5929 4.47631 9.46758 1.54556 7.20987 1.11802C4.70344 0.644171 3.37086 2.86563 2.76624 4.8674C1.70867 8.37247 1.86539 14.8359 4.206 17.8504C4.68322 18.4651 5.40512 19.1005 6.1978 19.2758C9.67687 20.0442 10.8891 15.6003 11.4311 13.1464L11.702 13.1444L11.3825 19.8285C11.1904 19.858 11.1571 19.6315 11.0438 19.5172C10.329 18.7951 8.9853 19.6127 8.16432 19.8157C2.90375 21.121 0.213305 15.1836 0.0141251 11.0441C-0.197188 6.65639 1.93009 -0.758646 7.88426 0.596885C8.66278 0.774207 9.84875 1.47956 10.5838 1.05497C10.8163 0.920991 10.8942 0.589989 11.1591 0.574227H11.1581Z" fill="black"/>
<path d="M22.4285 19.6956C21.2486 19.5794 20.8997 18.5608 20.7228 17.5707C20.4609 17.9205 20.2931 18.3322 20.0151 18.6731C17.9677 21.1871 13.9396 19.7942 13.5392 16.7511C13.4805 16.3058 13.4896 15.8744 13.5442 15.4291C13.9234 12.3102 16.7503 10.0848 19.2608 8.47114C19.0475 7.07817 18.3438 5.07542 16.4703 5.79554C15.445 6.18959 15.716 7.33529 15.3935 8.06724C15.0821 8.7716 13.9598 8.54995 13.8607 7.8515C13.6403 6.29106 15.4835 5.21629 16.8787 5.13157C19.5803 4.96705 20.7764 6.19353 21.2162 8.66028C21.7541 11.6767 21.9209 14.9158 22.5559 17.8909C22.6367 18.2702 22.8289 19.0297 23.1089 19.2996C23.2798 19.4641 23.4244 19.3656 23.3607 19.6966C23.0604 19.675 22.7237 19.7252 22.4285 19.6966V19.6956ZM19.3589 8.98439C19.3275 8.95188 19.0404 9.19127 18.9949 9.22673C16.7665 10.997 14.6797 13.912 15.5623 16.8624C16.3479 19.4878 19.4044 19.3607 20.653 17.222L19.3589 8.98341V8.98439Z" fill="black"/>
<path d="M42.7165 19.6956C41.5346 19.5794 41.1918 18.5588 41.0108 17.5707C40.7449 17.9332 40.571 18.348 40.2829 18.6977C38.2324 21.1871 34.2326 19.7794 33.8272 16.7511C33.7706 16.3265 33.7777 15.894 33.8272 15.4685C34.1922 12.3259 37.0252 10.0966 39.5488 8.47112C39.3436 7.0752 38.6288 5.07638 36.7593 5.79552C35.7422 6.18662 36.005 7.33626 35.6825 8.06722C35.3711 8.77158 34.264 8.5519 34.1487 7.85246C33.8929 6.31074 35.8059 5.2143 37.1678 5.13056C39.8764 4.96506 41.0674 6.18662 41.5052 8.65928C42.0401 11.6767 42.214 14.9138 42.8449 17.8899C42.9258 18.2692 43.1179 19.0297 43.398 19.2986C43.5688 19.4631 43.7134 19.3646 43.6497 19.6956C43.3494 19.674 43.0127 19.7242 42.7175 19.6956H42.7165ZM39.6469 8.98437C39.6156 8.95186 39.3274 9.19125 39.2829 9.22671C37.0697 11.0196 34.9798 13.8558 35.8402 16.8279C36.6076 19.4809 39.6762 19.3794 40.9411 17.222L39.6469 8.98338V8.98437Z" fill="black"/>
<path d="M106.052 19.6957C105.337 19.6257 104.9 19.211 104.642 18.5884C104.505 18.2574 104.473 17.8958 104.323 17.5717C103.534 19.3134 102.072 20.3163 100.061 19.8602C98.5394 19.5154 97.2958 18.2012 97.1603 16.6634C96.8378 13.0027 99.9822 10.3054 102.845 8.51942C102.878 8.49775 102.887 8.46918 102.891 8.43174C102.905 8.31747 102.731 7.68108 102.685 7.52346C102.345 6.37283 101.685 5.34633 100.268 5.74629C99.1228 6.06941 99.3594 7.20822 99.047 8.00912C98.7164 8.85535 97.5102 8.53617 97.4819 7.71556C97.4313 6.2428 99.1056 5.2291 100.455 5.13157C103.064 4.94342 104.39 6.10094 104.838 8.52631C105.385 11.4846 105.586 14.576 106.133 17.5363C106.217 17.9943 106.405 18.9243 106.718 19.2681C106.877 19.4425 107.056 19.3745 106.984 19.6957C106.684 19.674 106.347 19.7242 106.052 19.6957ZM102.981 8.9844C101.119 10.399 99.3857 12.3013 99.0763 14.6774C98.9075 15.9719 99.0824 17.5294 100.212 18.3864C101.5 19.3637 103.632 18.5903 104.294 17.2289L102.982 8.9844H102.981Z" fill="black"/>
<path d="M54.6834 0.707275L54.9756 6.28111L54.8169 6.26535L54.7835 6.21018C54.4913 4.59261 53.9261 2.25589 52.1952 1.55941C52.0456 1.49932 51.4733 1.3279 51.3419 1.3279H50.1822V17.7263C50.2651 18.2592 50.1953 18.9449 50.7585 19.2453C51.0335 19.3921 51.4086 19.2966 51.3186 19.6956H47.1348C47.0438 19.3074 47.4169 19.3843 47.6909 19.2414C47.9649 19.0986 48.0781 18.9193 48.157 18.6326C48.1964 18.4907 48.2713 18.1657 48.2713 18.0356V1.32692H47.1571C47.0226 1.32692 46.4938 1.49045 46.3371 1.54759C44.502 2.21649 44.0096 4.58177 43.6568 6.24171L43.4505 6.28407L43.769 0.707275H54.6834Z" fill="black"/>
<path d="M90.921 10.7545H84.1903C84.1347 13.0085 84.7474 16.0348 86.5764 17.5725C87.7139 18.5281 89.1698 18.7015 90.3133 17.6445C90.4053 17.5597 90.7279 17.1282 90.8057 17.1273L90.9179 17.1982C90.4013 18.4877 89.3832 19.8373 87.8494 19.9605C82.8739 20.3595 82.3714 13.2872 83.0205 9.94866C83.3835 8.07791 84.5988 5.32941 86.8504 5.13436C90.0889 4.85261 91.1262 8.19809 90.92 10.7545H90.921ZM87.0941 5.71952C85.1367 5.77666 84.3885 8.15672 84.2368 9.7142C84.2277 9.80976 84.1812 10.2541 84.2368 10.2915L86.898 10.1782C88.5005 10.058 89.368 9.8068 89.2426 8.02964C89.1577 6.83074 88.4681 5.67913 87.0961 5.71854L87.0941 5.71952Z" fill="black"/>
<path d="M63.232 10.7545H56.5014C56.4528 13.0666 57.1616 16.4938 59.2798 17.8543C60.6478 18.733 62.1552 18.4552 63.0581 17.1332L63.2785 17.1726C62.6679 18.5291 61.7407 19.8571 60.0745 19.9625C55.0596 20.2787 54.6542 12.8824 55.4327 9.55856C55.9766 7.23465 57.6328 4.43 60.5386 5.25357C62.8155 5.89882 63.3989 8.74485 63.233 10.7535L63.232 10.7545ZM61.125 9.67776C61.7357 9.12708 61.6153 7.73411 61.3444 7.03763C60.9652 6.06334 60.0998 5.56782 59.0371 5.76485C57.2061 6.10472 56.5216 8.76357 56.5469 10.3122C56.8199 10.2314 57.108 10.2816 57.3901 10.2698C57.4872 10.2659 57.5731 10.2284 57.6611 10.2245C58.5397 10.1821 60.4769 10.261 61.124 9.67776H61.125Z" fill="black"/>
<path d="M71.0879 5.27333L71.3093 5.26644L71.6278 9.60493L71.4044 9.6C71.0404 8.17551 70.2487 5.8713 68.4662 5.70974C66.1772 5.50287 65.5281 7.88096 66.8293 9.38327C68.0416 10.7831 70.1759 11.4205 71.374 12.9711C73.4113 15.6083 72.3123 20.2837 68.2863 19.9606C67.5259 19.8995 66.3925 19.3547 65.7151 19.4956C65.4088 19.5596 65.3097 19.8197 65.0337 19.8285L64.6697 14.6941L64.9214 14.7374C65.4664 16.6624 66.5199 19.5704 69.0607 19.3872C71.3104 19.2247 71.3821 16.5432 70.4651 15.0517C68.996 12.6618 65.0822 12.0539 64.8527 8.82865C64.6555 6.04961 66.9153 4.59951 69.5723 5.34229C70.0455 5.4743 70.8362 5.94716 71.0889 5.27333H71.0879Z" fill="black"/>
<path d="M80.1471 5.27333L80.3685 5.26644L80.687 9.60493L80.4636 9.6C80.0996 8.17551 79.3079 5.8713 77.5254 5.70974C75.2364 5.50287 74.5873 7.88096 75.8885 9.38327C77.1008 10.7831 79.2351 11.4205 80.4333 12.9711C82.4706 15.6083 81.3715 20.2837 77.3455 19.9606C76.5851 19.8995 75.4517 19.3547 74.7743 19.4956C74.468 19.5596 74.3689 19.8197 74.0929 19.8285L73.7289 14.6941L73.9806 14.7374C74.5256 16.6624 75.5791 19.5704 78.1199 19.3872C80.3696 19.2247 80.4413 16.5432 79.5243 15.0517C78.0552 12.6618 74.1414 12.0539 73.9119 8.82865C73.7147 6.04961 75.9745 4.59951 78.6315 5.34229C79.1047 5.4743 79.8954 5.94716 80.1481 5.27333H80.1471Z" fill="black"/>
<path d="M30.8061 5.27339L31.0265 5.2665L31.345 9.60499L31.1226 9.60006C30.7424 8.17853 29.97 5.87136 28.1844 5.71079C25.9176 5.50588 25.2281 7.87018 26.5243 9.36265C27.7385 10.7605 29.8537 11.4038 31.0468 12.9288C33.1164 15.5739 32.0568 20.2877 28.0045 19.9616C27.23 19.8995 26.0915 19.3429 25.3969 19.5055C25.0997 19.5754 25.0259 19.8296 24.7519 19.8296L24.3879 14.6951L24.6204 14.7217C25.1876 16.6683 26.2523 19.6503 28.8618 19.3814C30.9709 19.1637 31.068 16.6506 30.2622 15.1966C28.9013 12.7406 24.8277 12.0806 24.5709 8.91835C24.3636 6.3787 26.3433 4.61336 28.9356 5.24581C29.4907 5.38077 30.5028 5.99648 30.8071 5.27438L30.8061 5.27339Z" fill="black"/>
<path d="M95.1412 18.4789C95.1897 18.8769 95.4688 19.3704 95.9096 19.4355L95.9147 19.6965H92.5943C92.5397 19.3537 92.6722 19.4404 92.8643 19.3172C93.0958 19.1695 93.1858 19.0296 93.2556 18.7685C93.4123 13.1809 93.2758 7.5657 93.3243 1.96723C93.2687 1.50619 93.2454 0.969301 92.8916 0.617612C92.6995 0.426498 92.5175 0.507278 92.5943 0.131945L95.032 0.000923886C95.0694 -0.00892736 95.1412 0.0462396 95.1412 0.064957V18.4779V18.4789Z" fill="black"/>
</g>
<defs>
<clipPath id="clip0_4104_117">
<rect width="107" height="20" fill="white"/>
</clipPath>
</defs>
</svg>
