<svg width="91" height="48" viewBox="0 0 91 48" fill="none" xmlns="http://www.w3.org/2000/svg">
<g clip-path="url(#clip0_4104_163)">
<g style="mix-blend-mode:multiply">
<path d="M0 12.861C0 8.67223 2.66966 5.92627 6.78989 5.92627C10.3237 5.92627 12.5304 7.88102 13.0551 11.0303H9.56758C9.25895 9.58755 8.25589 8.68774 6.7436 8.68774C4.70663 8.68774 3.39495 10.3943 3.39495 12.8455C3.39495 15.2967 4.70663 16.9877 6.7436 16.9877C8.27132 16.9877 9.28981 16.0724 9.56758 14.6141H13.0551C12.5613 17.7789 10.2003 19.7492 6.68187 19.7492C2.56164 19.7492 0 17.0963 0 12.8455L0 12.861Z" fill="#1D1D1B"/>
<path d="M15.2464 16.724H19.0271V8.95152H15.2464V6.08145H22.3758V16.724H26.0485V19.5941H15.2464V16.724ZM18.5796 2.07886C18.5796 0.899806 19.4901 0 20.7092 0C21.9283 0 22.8387 0.899806 22.8387 2.07886C22.8387 3.25792 21.9283 4.18875 20.7092 4.18875C19.4901 4.18875 18.5796 3.28895 18.5796 2.07886Z" fill="#1D1D1B"/>
<path d="M27.6071 12.861C27.6071 8.67223 30.2767 5.92627 34.397 5.92627C37.9308 5.92627 40.1375 7.88102 40.6622 11.0303H37.1746C36.866 9.58755 35.8629 8.68774 34.3507 8.68774C32.3137 8.68774 31.002 10.3943 31.002 12.8455C31.002 15.2967 32.3137 16.9877 34.3507 16.9877C35.8784 16.9877 36.8969 16.0724 37.1746 14.6141H40.6622C40.1684 17.7789 37.8073 19.7492 34.2889 19.7492C30.1687 19.7492 27.6071 17.0963 27.6071 12.8455V12.861Z" fill="#1D1D1B"/>
<path d="M42.1744 16.724H45.9552V4.03364H42.1744V1.16357H49.273V16.7395H52.9457V19.6096H42.1744V16.7395V16.724Z" fill="#1D1D1B"/>
<path d="M54.3962 12.861C54.3962 8.70326 57.1431 5.92627 61.2324 5.92627C65.3218 5.92627 68.0995 8.68774 68.0995 12.861C68.0995 17.0342 65.3218 19.7647 61.2324 19.7647C57.1431 19.7647 54.3962 17.0032 54.3962 12.861ZM64.6891 12.861C64.6891 10.4098 63.3311 8.70326 61.2324 8.70326C59.1337 8.70326 57.7758 10.4408 57.7758 12.861C57.7758 15.2812 59.1337 17.0032 61.2324 17.0032C63.3311 17.0032 64.6891 15.2967 64.6891 12.861Z" fill="#1D1D1B"/>
<path d="M0.185181 36.07C0.185181 32.0054 2.74682 29.2129 6.4967 29.2129C9.50585 29.2129 11.5737 30.9039 12.1909 33.6654H10.7712C10.2774 31.6331 8.70341 30.3919 6.46583 30.3919C3.53383 30.3919 1.54316 32.7345 1.54316 36.0545C1.54316 39.3745 3.5647 41.6706 6.46583 41.6706C8.67255 41.6706 10.2466 40.4139 10.7712 38.4281H12.1909C11.62 41.1431 9.49042 42.8806 6.4504 42.8806C2.70053 42.8806 0.185181 40.1812 0.185181 36.07Z" fill="#1D1D1B"/>
<path d="M14.7834 39.0642C14.7834 36.5665 16.5889 35.0927 20.0302 35.0927H24.5053V33.9291C24.5053 31.7106 23.1165 30.3919 20.6012 30.3919C18.379 30.3919 16.9284 31.4779 16.6198 33.1069H15.2773C15.6168 30.6867 17.6383 29.2129 20.6783 29.2129C23.9807 29.2129 25.8479 30.9194 25.8479 33.9757V40.1967C25.8479 41.2206 26.2645 41.4844 27.0207 41.4844H27.5454V42.7255H26.7275C25.1535 42.7255 24.5208 42.0429 24.5516 40.4605V39.964C23.7646 41.655 22.1597 42.8806 19.4746 42.8806C16.7896 42.8806 14.7834 41.4378 14.7834 39.0642ZM24.5053 37.3267V36.2407H19.8913C17.4222 36.2407 16.1106 37.2181 16.1106 38.9866C16.1106 40.6466 17.4531 41.7326 19.5364 41.7326C22.6844 41.7326 24.4899 39.8865 24.4899 37.3267H24.5053Z" fill="#1D1D1B"/>
<path d="M30.2613 29.368H31.4187L31.6038 32.6104C32.3908 30.6557 34.1655 29.2129 36.6808 29.2129C40.3227 29.2129 42.946 31.8503 42.946 36.039C42.946 40.2278 40.3227 42.8961 36.6808 42.8961C34.1655 42.8961 32.3291 41.5464 31.6038 39.5451V48.0002H30.2613V29.368ZM41.5881 36.039C41.5881 32.7501 39.5357 30.4075 36.5882 30.4075C33.6408 30.4075 31.5884 32.7501 31.5884 36.0235C31.5884 39.2969 33.6254 41.6861 36.5882 41.6861C39.5511 41.6861 41.5881 39.3745 41.5881 36.0545V36.039Z" fill="#1D1D1B"/>
<path d="M45.5077 41.4996H49.5199V30.6244H45.5077V29.3833H50.847V41.4996H54.8592V42.7407H45.5077V41.4996ZM48.9952 25.1014C48.9952 24.4188 49.5199 23.9224 50.1989 23.9224C50.8779 23.9224 51.3717 24.4188 51.3717 25.1014C51.3717 25.784 50.8779 26.2805 50.1989 26.2805C49.5199 26.2805 48.9952 25.784 48.9952 25.1014Z" fill="#1D1D1B"/>
<path d="M58.3159 39.6224V30.6089H54.566V29.3678H58.3159V25.6289H59.6585V29.3678H64.8435V30.6089H59.6585V39.5914C59.6585 40.9566 60.1523 41.4841 61.5411 41.4841H64.9669V42.7252H61.4022C59.1492 42.7252 58.3159 41.7478 58.3159 39.6224Z" fill="#1D1D1B"/>
<path d="M67.0657 39.0642C67.0657 36.5665 68.8712 35.0927 72.3124 35.0927H76.7876V33.9291C76.7876 31.7106 75.3987 30.3919 72.8834 30.3919C70.6612 30.3919 69.2107 31.4779 68.902 33.1069H67.5595C67.899 30.6867 69.9205 29.2129 72.9605 29.2129C76.2629 29.2129 78.1301 30.9194 78.1301 33.9757V40.1967C78.1301 41.2206 78.5468 41.4844 79.3029 41.4844H79.8276V42.7255H79.0097C77.4357 42.7255 76.803 42.0429 76.8339 40.4605V39.964C76.0469 41.655 74.442 42.8806 71.7569 42.8806C69.0718 42.8806 67.0657 41.4378 67.0657 39.0642ZM76.7876 37.3267V36.2407H72.1735C69.7045 36.2407 68.3928 37.2181 68.3928 38.9866C68.3928 40.6466 69.7353 41.7326 71.8186 41.7326C74.9666 41.7326 76.7721 39.8865 76.7721 37.3267H76.7876Z" fill="#1D1D1B"/>
<path d="M81.6331 41.4998H85.6453V25.536H81.6331V24.2949H86.9724V41.4998H90.9846V42.7409H81.6331V41.4998Z" fill="#1D1D1B"/>
</g>
</g>
<defs>
<clipPath id="clip0_4104_163">
<rect width="91" height="48" fill="white"/>
</clipPath>
</defs>
</svg>
