<svg width="110" height="22" viewBox="0 0 110 22" fill="none" xmlns="http://www.w3.org/2000/svg">
<g clip-path="url(#clip0_4103_66)">
<path d="M8.26641 5.96212C9.48499 5.96212 10.8577 6.2303 11.9172 6.74271V12.36C11.1363 11.8812 10.3256 11.6369 9.45017 11.6369C7.88841 11.6369 6.67481 12.566 6.67481 13.9787C6.67481 15.3914 7.85856 16.3204 9.45017 16.3204C10.3256 16.3204 11.1661 16.0522 11.9172 15.5686V21.1572C10.6986 21.7558 9.36064 22 8.17191 22C3.55625 22 0 18.9064 0 13.9787C0 9.3239 3.43191 5.96212 8.26641 5.96212ZM21.2778 22C16.2245 22 12.4195 18.6047 12.4195 13.9787C12.4195 9.35263 16.2245 5.95734 21.2778 5.95734C26.3312 5.95734 30.1361 9.35263 30.1361 13.9787C30.1361 18.6047 26.3312 22 21.2778 22ZM21.2778 11.7279C19.9995 11.7279 18.8456 12.6905 18.8456 13.9787C18.8456 15.2669 19.9995 16.2294 21.2778 16.2294C22.5561 16.2294 23.71 15.2669 23.71 13.9787C23.71 12.6905 22.5561 11.7279 21.2778 11.7279ZM37.5918 21.5498H31.0115V6.41228H37.6266V8.09317C38.4075 6.86243 39.7803 5.96212 41.7449 5.96212C43.7095 5.96212 45.147 6.80496 45.9875 8.21289C47.1713 6.32129 49.1409 5.96212 50.6977 5.96212C54.1943 5.96212 56.0345 8.15542 56.0345 11.6082V21.5498H49.4542V13.4088C49.4542 12.2978 48.9569 11.7566 48.176 11.7566C47.3354 11.7566 46.8331 12.269 46.8331 13.3178V21.5498H40.2528V13.3513C40.2528 12.2978 39.7206 11.7614 38.9447 11.7614C38.1688 11.7614 37.6017 12.2403 37.6017 13.2651V21.5546L37.5918 21.5498ZM65.7284 22C60.6751 22 56.8701 18.6047 56.8701 13.9787C56.8701 9.35263 60.6751 5.95734 65.7284 5.95734C70.7818 5.95734 74.5867 9.35263 74.5867 13.9787C74.5867 18.6047 70.7818 22 65.7284 22ZM65.7284 11.7279C64.4502 11.7279 63.2963 12.6905 63.2963 13.9787C63.2963 15.2669 64.4502 16.2294 65.7284 16.2294C67.0067 16.2294 68.1606 15.2669 68.1606 13.9787C68.1606 12.6905 67.0067 11.7279 65.7284 11.7279ZM82.0474 6.41228V8.15542C82.9228 6.68524 84.4497 5.96212 86.2602 5.96212C89.4135 5.96212 91.4379 8.15542 91.4379 11.6992V21.5498H84.8526V13.4375C84.8526 12.3552 84.3204 11.7566 83.5097 11.7566C82.6044 11.7566 82.0424 12.3552 82.0424 13.4375V21.5498H75.4621V6.41228H82.0424H82.0474ZM101.137 22C96.0834 22 92.2784 18.6047 92.2784 13.9787C92.2784 9.35263 96.0834 5.95734 101.137 5.95734C106.19 5.95734 109.995 9.35263 109.995 13.9787C109.995 18.6047 106.19 22 101.137 22ZM101.137 11.7279C99.8585 11.7279 98.7046 12.6905 98.7046 13.9787C98.7046 15.2669 99.8585 16.2294 101.137 16.2294C102.415 16.2294 103.569 15.2669 103.569 13.9787C103.569 12.6905 102.415 11.7279 101.137 11.7279ZM28.9523 0H22.571L19.343 4.9852H24.2869L28.9523 0Z" fill="#1D1D1B"/>
</g>
<defs>
<clipPath id="clip0_4103_66">
<rect width="110" height="22" fill="white"/>
</clipPath>
</defs>
</svg>
