<svg width="134" height="14" viewBox="0 0 134 14" fill="none" xmlns="http://www.w3.org/2000/svg">
<g clip-path="url(#clip0_4104_107)">
<path d="M23.26 0.913636C29.0281 0.718752 31.8548 7.33264 27.939 11.1012C27.939 11.1524 28.6347 11.7102 28.7258 11.8345C28.7597 11.8807 28.8092 11.9075 28.7545 11.9684C27.6863 12.8868 26.4045 13.5762 24.9664 13.8393C19.5839 14.8259 15.082 10.5531 16.0329 5.55675C16.283 4.24129 17.0516 2.79183 18.1171 1.90024L18.9326 2.69926C17.9869 3.71997 17.2522 5.00864 17.1428 6.38014C16.7025 11.9149 23.6586 15.033 27.8765 11.1012L27.035 10.3144C27.5326 9.87101 27.9443 9.26443 28.1866 8.66029C28.7337 7.2961 28.6347 5.68099 27.8453 4.41668C26.1727 1.73702 22.1449 1.24738 19.8106 3.46662L19.0003 2.69926C20.006 1.59573 21.715 0.964793 23.2574 0.9112L23.26 0.913636Z" fill="black"/>
<path d="M122.268 1.90017C122.469 1.79055 123.073 2.64316 123.235 2.62124C123.988 2.0171 124.756 1.49578 125.718 1.21076C131.853 -0.618712 136.446 6.01953 132.572 10.7016C132.494 10.7966 132.239 10.9866 132.218 11.0573C132.168 11.2278 132.885 11.715 132.994 11.8929C132.043 12.9233 130.402 13.6834 128.964 13.8904C122.352 14.8429 117.842 8.18275 121.372 2.9769C121.635 2.59201 121.982 2.26558 122.268 1.90017ZM131.314 10.3898V10.3143C133.565 8.09262 133.218 4.36789 130.353 2.76253C128.357 1.64438 125.702 1.85875 124.09 3.46655L123.238 2.73573C123.086 2.71137 122.453 3.57617 122.352 3.73208C120.611 6.38007 121.26 9.83196 123.931 11.6931C126.455 13.4495 129.959 13.1767 132.155 11.0987L131.314 10.3898Z" fill="black"/>
<path d="M57.2302 1.90016C57.4308 1.79054 58.0352 2.64316 58.1968 2.62123C58.9497 2.01709 59.7182 1.49578 60.6796 1.21076C66.8489 -0.628461 71.4264 6.09261 67.5106 10.7309C67.4351 10.8186 67.2032 10.9818 67.1798 11.0573C67.1303 11.2278 67.8467 11.715 67.9561 11.8929C67.2058 12.7211 65.9527 13.3837 64.8376 13.6931C58.5849 15.4227 53.1972 9.53475 55.753 4.00978C56.1177 3.22294 56.6466 2.55302 57.2302 1.9026V1.90016ZM62.2714 2.06825C61.0626 2.1462 59.872 2.63585 59.0513 3.46898C58.9783 3.46898 58.3869 2.8624 58.2671 2.78445C58.2072 2.74547 58.2072 2.71868 58.1264 2.75765C57.9675 2.83317 57.436 3.55424 57.3162 3.73451C55.3857 6.67239 56.4278 10.5262 59.6844 12.1657C62.1359 13.4008 65.1841 12.9428 67.1198 11.1011L66.2809 10.3143C68.571 8.05851 68.162 4.26801 65.2128 2.7065C64.34 2.24365 63.2901 2.00248 62.2766 2.06825H62.2714Z" fill="black"/>
<path d="M76.5614 1.15957V6.87699H81.7042C81.7693 6.87699 82.2253 6.75275 82.3243 6.72108C82.7463 6.58223 83.1241 6.3167 83.4549 6.04142C83.5123 6.03168 84.2548 6.70159 84.2938 6.77224C84.3225 6.8234 84.3225 6.82583 84.2938 6.87699C84.1662 7.10598 82.9261 7.81731 82.6603 7.81731L80.8601 6.98174L80.7767 7.05969L84.4059 12.6431L86.5657 13.8003H83.6998L80.0186 8.08284C79.9769 8.02924 79.917 8.03411 79.8545 8.02681C79.2162 7.95373 78.4372 8.09745 77.7833 8.0195L76.564 6.92815V12.6724L77.7442 13.8003H75.3265V0.00488281L76.5457 1.09623C78.1793 1.2156 79.9795 0.974432 81.5922 1.10842C84.1011 1.31792 85.3959 4.39465 83.4549 5.98296L82.6343 5.27163C82.6056 5.17906 82.8922 4.88186 82.9626 4.74788C83.5201 3.67358 82.7333 2.38003 81.4801 2.2631C80.3104 2.15348 78.9713 2.35324 77.7833 2.25092L76.564 1.15957H76.5614Z" fill="black"/>
<path d="M0 0.00488281L1.21927 1.09623C3.43636 1.20586 5.64825 0.760059 7.68297 1.78077C10.9109 3.39831 11.828 7.4519 9.7698 10.2509C9.68383 10.3679 9.19664 10.9842 9.08461 10.9647L8.26134 10.2095C8.49321 9.83679 8.82148 9.53229 9.04032 9.14983C10.244 7.03777 9.61348 4.36542 7.48497 3.01584C5.89314 2.00732 4.22316 2.30452 2.40207 2.25092L1.1828 1.15957V12.648H5.48411C6.27091 12.648 7.66734 12.0439 8.30824 11.6102C8.44892 11.5152 8.99082 11.0378 9.03772 11.028C9.21488 10.9842 9.77501 11.6663 9.95217 11.7832C8.73811 12.9647 7.06031 13.6419 5.31738 13.8051H0V0.00488281Z" fill="black"/>
<path d="M90.3329 13.8003L95.8144 0.00488281L96.8148 0.701594L100.225 9.34228L98.5161 8.23631L96.7966 3.96591V0.845321L93.368 9.39587H100.282L101.551 12.592L103.318 13.8027H100.759L99.4279 10.5603L94.2955 10.5506C94.2278 10.5506 94.1965 10.5116 94.1522 10.475C94.0089 10.3581 93.4592 9.46895 93.3941 9.44946C93.2873 9.41779 93.3107 9.49818 93.2846 9.55421C92.8157 10.5213 92.5421 11.6517 92.0888 12.6334L92.9173 13.8051H90.3303L90.3329 13.8003Z" fill="black"/>
<path d="M116.977 2.26066H112.509L111.3 1.15957V12.6748L112.48 13.8027H110.063V2.26066H105.595L105.511 2.18271V0.00487652C105.61 -0.017048 105.623 0.0438534 105.681 0.0828302C105.928 0.260662 106.632 1.06943 106.835 1.10597H115.771C115.818 1.10597 115.849 1.13764 115.888 1.15713C115.977 1.20341 116.805 1.9927 116.896 2.10475C116.941 2.15835 117.006 2.17053 116.98 2.2631L116.977 2.26066Z" fill="black"/>
<path d="M36.1457 0.00495294L37.3102 0.650507L43.0601 11.2839V8.68705L47.7261 0.00738899C47.8616 -0.0803089 48.5286 0.592042 48.7266 0.645635L48.737 12.5677L49.9719 13.8028H47.5542V5.27657C47.8929 3.88315 48.3723 2.45562 48.6536 1.05733C48.664 1.00373 48.7266 0.884368 48.6224 0.896549L43.0809 11.279C43.0601 11.3959 43.7349 11.8003 43.8625 11.9197C43.912 11.966 43.985 11.9635 43.9563 12.0683H42.044L38.5321 5.45684L37.3233 0.842955V12.6188L38.5034 13.7979H36.1431V0.00495294H36.1457Z" fill="black"/>
</g>
<defs>
<clipPath id="clip0_4104_107">
<rect width="134" height="14" fill="white"/>
</clipPath>
</defs>
</svg>
