<svg width="54" height="74" viewBox="0 0 54 74" fill="none" xmlns="http://www.w3.org/2000/svg">
<path d="M12.0453 12.1318L6.02265 6.06591H23.7882C32.2186 6.06591 39.8471 9.5038 45.2673 15.0621C50.6874 20.6227 54 28.4053 54 37C54 45.5947 50.6874 53.375 45.2673 58.9356L49.4824 63.1833C42.9581 69.8538 33.9253 74 23.7882 74H0V0L6.02265 6.06591V67.9341H23.7882C32.2186 67.9341 39.8471 64.4962 45.2673 58.9356L40.9513 54.6901C45.2673 50.244 47.9773 43.975 47.9773 37C47.9773 30.025 45.2673 23.7561 40.9513 19.3099C36.5345 14.8614 30.5119 12.1318 23.7882 12.1318H12.0453Z" fill="white"/>
</svg>
