<svg width="111" height="26" viewBox="0 0 111 26" fill="none" xmlns="http://www.w3.org/2000/svg">
<g clip-path="url(#clip0_4104_95)">
<path d="M0 25.7846V2.51392H1.24246V24.978H7.51494V25.7846H0Z" fill="#121E2C"/>
<path d="M13.0649 25.7846C10.0929 25.7846 8.17174 23.9669 8.17174 21.1492C8.17174 17.8619 10.0874 16.536 11.7787 15.3702C13.1908 14.3978 14.5208 13.4752 14.5208 11.5028C14.5208 10.0884 13.6013 9.17131 12.1782 9.17131C10.4322 9.17131 9.30473 10.7127 9.30473 13.105V13.3757H8.09511V13.105C8.08416 11.5967 8.52203 10.3481 9.36493 9.49175C10.0819 8.76247 11.0562 8.37573 12.1782 8.37573C14.3348 8.37573 15.7305 9.74037 15.7305 11.8509V25.7735H13.0649V25.7846ZM14.5208 14.0884C14.0173 14.7735 13.3112 15.3205 12.5669 15.8951C11.0069 17.105 9.39777 18.3592 9.39777 21.0884C9.39777 23.4476 10.8975 24.9779 13.2182 24.9779H14.5208V14.0884Z" fill="#121E2C"/>
<path d="M21.8716 25.906C19.4907 25.906 17.9526 23.8176 17.9526 20.58V13.7237C17.9526 10.4861 19.4907 8.39771 21.8716 8.39771C24.2525 8.39771 25.7467 10.4861 25.7467 13.7237V13.9944H24.5645V13.7237C24.5645 10.9668 23.5081 9.18776 21.8716 9.18776C20.235 9.18776 19.1787 10.9833 19.1787 13.7679V20.5303C19.1787 23.3148 20.235 25.1104 21.8716 25.1104C23.5081 25.1104 24.5645 23.3259 24.5645 20.5579V20.2872H25.7467V20.5579C25.7467 23.7513 24.1923 25.9005 21.8716 25.9005V25.906Z" fill="#121E2C"/>
<path d="M31.5923 25.906C29.2114 25.906 27.6734 23.8673 27.6734 20.7181V13.6021C27.6734 10.4419 29.2114 8.39771 31.5923 8.39771C33.9733 8.39771 35.5113 10.4419 35.5113 13.6021V20.7181C35.5113 23.8673 33.9733 25.906 31.5923 25.906ZM31.5923 9.18776C29.9558 9.18776 28.8994 10.9336 28.8994 13.6297V20.685C28.8994 23.3756 29.9558 25.1104 31.5923 25.1104C33.2289 25.1104 34.2852 23.3701 34.2852 20.685V13.6297C34.2852 10.9336 33.2289 9.18776 31.5923 9.18776Z" fill="#121E2C"/>
<path d="M48.4612 25.7845V12.1049C48.4612 10.3977 47.6074 9.29827 46.2883 9.29827H44.3289V25.7845H43.1192V9.29827H41.1598C39.8407 9.29827 38.9868 10.4032 38.9868 12.1049V25.7845H37.7608V12.1215C37.7608 9.92258 39.0361 8.50269 41.0065 8.50269H46.4416C48.412 8.50269 49.6873 9.92258 49.6873 12.1215V25.7845H48.4612Z" fill="#121E2C"/>
<path d="M52.3036 25.7845V0H53.5132V8.51934H55.2263C58.0068 8.51934 59.8021 10.5249 59.8021 13.6298V20.7182C59.8021 23.7956 58.0068 25.7845 55.2263 25.7845H52.2981H52.3036ZM55.1552 24.9945C57.246 24.9945 58.5925 23.3149 58.5925 20.7238V13.6354C58.5925 11.0111 57.2405 9.31492 55.1552 9.31492H53.5187V24.9945H55.1552Z" fill="#121E2C"/>
<path d="M72.3689 25.7844C67.8917 25.7844 65.3247 23.58 65.3247 19.7347C65.3247 16.6684 66.6274 14.5911 69.0138 13.8231C66.797 13.0496 65.5382 11.022 65.5382 8.17671C65.5382 4.51925 67.4593 2.24854 70.5573 2.24854C73.6552 2.24854 75.5763 4.43638 75.5763 7.69605V7.96677H74.1806V7.70157C74.1204 4.92257 72.6481 3.05516 70.5135 3.05516C68.3789 3.05516 66.9284 5.04411 66.9284 8.12699C66.9284 11.4972 68.658 13.4309 71.6738 13.4309H77.5905V14.2375H75.5709V25.7789H72.3635L72.3689 25.7844ZM71.6793 14.2264C68.4828 14.2264 66.7204 16.2043 66.7204 19.7955C66.7204 23.138 68.7291 24.9778 72.3854 24.9778H74.2135V14.2264H71.6793Z" fill="#121E2C"/>
<path d="M83.7535 25.7846V2.51392H86.5723C89.8947 2.51392 91.7282 4.58021 91.7282 8.3316C91.7282 10.9946 90.6609 12.967 88.789 13.7957C90.8251 14.5968 91.9855 16.6741 91.9855 19.5636C91.9855 23.5747 90.1574 25.7846 86.8296 25.7846H83.7535ZM86.6927 24.978C90.0424 24.978 90.743 22.0333 90.743 19.5636C90.743 17.094 90.0424 14.2432 86.6927 14.2432H84.9796V24.978H86.6927ZM86.4464 13.4366C89.7961 13.4366 90.4967 10.652 90.4967 8.31502C90.4967 5.978 89.7961 3.32055 86.4464 3.32055H84.9741V13.4366H86.4464Z" fill="#121E2C"/>
<path d="M97.7982 25.906C95.4173 25.906 93.8793 23.8673 93.8793 20.7181V13.6021C93.8793 10.4419 95.4173 8.39771 97.7982 8.39771C100.179 8.39771 101.717 10.4419 101.717 13.6021V20.7181C101.717 23.8673 100.179 25.906 97.7982 25.906ZM97.7982 9.18776C96.1617 9.18776 95.1053 10.9336 95.1053 13.6297V20.685C95.1053 23.3756 96.1617 25.1104 97.7982 25.1104C99.4347 25.1104 100.491 23.3701 100.491 20.685V13.6297C100.491 10.9336 99.4347 9.18776 97.7982 9.18776Z" fill="#121E2C"/>
<path d="M107.174 25.9999C104.804 25.9999 103.272 24.232 103.272 21.4917V21.2209H104.481V21.4917C104.481 23.7513 105.554 25.2099 107.218 25.2099C108.882 25.2099 109.878 23.8729 109.878 21.801C109.878 19.4198 108.378 18.4088 106.796 17.337C105.16 16.232 103.469 15.0828 103.469 12.4033C103.469 9.88945 104.886 8.26514 107.081 8.26514C109.276 8.26514 110.83 10.0055 110.83 12.6961V12.9668H109.632V12.6961C109.632 10.4861 108.619 9.05519 107.048 9.05519C105.576 9.05519 104.585 10.3314 104.585 12.232C104.585 14.4751 106.041 15.453 107.585 16.4917C109.265 17.6187 111 18.79 111 21.6022C111 24.4143 109.5 26.0055 107.174 26.0055V25.9999Z" fill="#121E2C"/>
</g>
<defs>
<clipPath id="clip0_4104_95">
<rect width="111" height="26" fill="white"/>
</clipPath>
</defs>
</svg>
