<svg width="66" height="68" viewBox="0 0 66 68" fill="none" xmlns="http://www.w3.org/2000/svg">
<path d="M27.9795 67.1888C15.078 67.1888 7.68094 60.8957 7.68094 49.9184C7.68094 41.165 11.4347 35.2347 18.3113 33.0424C11.9236 30.8343 8.29605 25.046 8.29605 16.9234C8.29605 6.4823 13.832 0 22.759 0C31.6859 0 37.2219 6.24572 37.2219 15.5512V16.324H33.2001V15.567C33.0266 7.63365 28.7839 2.30271 22.6328 2.30271C16.4817 2.30271 12.3021 7.98064 12.3021 16.7814C12.3021 26.4024 17.2861 31.9226 25.9765 31.9226H45.3761V34.2253H37.2062V67.173H27.9637L27.9795 67.1888ZM26.008 34.1937C16.7972 34.1937 11.7186 39.8401 11.7186 50.0919C11.7186 59.634 17.5069 64.8861 28.0426 64.8861H33.3105V34.1937H26.008Z" fill="white"/>
<path d="M41.8589 67.1887V0.741211H49.9815C59.5551 0.741211 64.8387 6.63994 64.8387 17.3491C64.8387 24.9513 61.7632 30.5819 56.3691 32.9477C62.2363 35.2346 65.58 41.1649 65.58 49.4137C65.58 60.8641 60.3121 67.1729 50.7228 67.1729H41.8589V67.1887ZM50.3442 64.886C59.9967 64.886 62.0155 56.4795 62.0155 49.4294C62.0155 42.3793 59.9967 34.241 50.3442 34.241H45.4076V64.886H50.3442ZM49.6345 31.9383C59.287 31.9383 61.3058 23.9892 61.3058 17.3176C61.3058 10.646 59.287 3.0597 49.6345 3.0597H45.3918V31.9383H49.6345Z" fill="white"/>
<path d="M0 67.1887V0.741211H3.58025V64.886H37.222V67.1887H0Z" fill="white"/>
</svg>
