<svg width="78" height="25" viewBox="0 0 78 25" fill="none" xmlns="http://www.w3.org/2000/svg">
<g clip-path="url(#clip0_4104_92)">
<path d="M4.69865 0V24.5787H0V0H4.69865ZM12.8037 0V24.5787H8.10508V0H12.8037ZM30.9186 24.5787C29.662 24.5787 27.6189 24.2275 27.0459 22.4017C25.8604 24.052 23.9951 25 21.5213 25C17.289 25 15.1708 22.4368 15.1708 19.7683C15.1708 16.4326 17.5024 14.7823 20.6598 14.2556L25.5363 13.448C26.3622 13.3076 26.5756 12.8511 26.5756 12.2893C26.5756 11.4817 26.0382 9.90168 23.5644 9.90168C20.9444 9.90168 20.2647 11.4817 20.0513 12.5351L15.6411 12.0787C16.0363 9.41011 18.4745 6.39045 23.7462 6.39045C29.0178 6.39045 31.1715 9.55056 31.1715 12.9213V19.4874C31.1715 20.3301 31.46 20.7865 32.4638 20.7865H33.183V24.5787H30.9226H30.9186ZM22.4539 21.4888C24.8211 21.4888 26.6507 19.7331 26.6507 17.1699V16.3624L22.1655 17.0646C20.3714 17.3455 19.7628 18.2584 19.7628 19.3469C19.7628 20.6461 20.6243 21.4888 22.4539 21.4888ZM53.1592 15.5548C53.1592 20.9972 50.0728 25 45.0185 25C42.5092 25 40.5688 23.9817 39.3517 22.2612V24.5787H34.8664V0H39.5651V8.95365C40.8218 7.3736 42.5763 6.39045 45.0185 6.39045C50.0412 6.39045 53.1592 10.0421 53.1592 15.5548ZM39.49 15.6952C39.49 18.7851 41.1774 21.1376 44.0108 21.1376C46.8443 21.1376 48.3143 18.8202 48.3143 15.6952C48.3143 12.5702 46.8087 10.2177 44.0108 10.2177C41.213 10.2177 39.49 12.4649 39.49 15.6952ZM67.3974 18.75L71.4875 19.698C70.4482 23.4551 67.2551 25 63.5958 25C57.676 25 54.4514 21.4888 54.4514 15.6952C54.4514 10.2879 57.9645 6.39045 63.4891 6.39045C68.6185 6.39045 71.9893 9.86657 71.9893 15.2739V16.9242H59.075C59.399 19.8736 60.9046 21.3834 63.5958 21.3834C65.9985 21.3834 66.8955 20.1545 67.3974 18.75ZM59.1501 13.8694H67.2551C67.0022 11.1306 65.5677 9.97191 63.418 9.97191C61.0864 9.97191 59.5808 11.236 59.1501 13.8694ZM75.3997 19.3937C73.9613 19.3937 72.7955 20.5446 72.7955 21.9647C72.7955 23.3848 73.9613 24.5357 75.3997 24.5357C76.8382 24.5357 78.0039 23.3848 78.0039 21.9647C78.0039 20.5446 76.8382 19.3937 75.3997 19.3937Z" fill="#1D1D1B"/>
</g>
<defs>
<clipPath id="clip0_4104_92">
<rect width="78" height="25" fill="white"/>
</clipPath>
</defs>
</svg>
