<svg width="94" height="38" viewBox="0 0 94 38" fill="none" xmlns="http://www.w3.org/2000/svg">
<g clip-path="url(#clip0_4103_50)">
<path d="M2.42012 23.5315V35.1485C2.42012 36.4007 3.02825 37.2066 3.77291 37.6157H0C0.744653 37.2066 1.35279 36.4007 1.35279 35.1485V24.0151C1.35279 22.7629 0.99287 21.957 0.235807 21.5479H3.69844C3.77291 22.2049 4.05836 22.8001 4.40586 23.4819L9.97835 34.5906L15.042 24.0895C15.4764 23.1968 15.9356 22.3041 15.9852 21.5479H19.4727C18.7156 21.957 18.3557 22.7629 18.3557 24.0151V35.1485C18.3557 36.4007 18.7156 37.2066 19.4727 37.6157H15.3771C16.1217 37.2066 16.4941 36.4007 16.4941 35.1485V23.4448L10.8719 35.1361C10.2886 36.3263 10.0032 36.9462 9.70531 38.0125L2.42012 23.5315Z" fill="#1D1D1B"/>
<path d="M27.8128 35.1484V32.4332L22.3148 23.2835C21.8556 22.5768 21.5825 22.1181 20.8379 21.5353H24.9583C23.9903 22.0685 24.1392 22.6512 24.5487 23.2959L29.2028 31.1562L33.1371 23.7546C33.77 22.6884 33.5963 21.9693 32.7772 21.5229H36.5004C35.3834 22.2296 34.8746 22.8495 34.2541 23.9158L29.6868 32.4084V35.1236C29.6868 36.3758 30.0468 37.1817 31.2878 37.5908H26.2242C27.4653 37.1817 27.8252 36.3758 27.8252 35.1236" fill="#1D1D1B"/>
<path d="M65.4549 35.26L70.9529 23.5687C70.3945 22.4529 69.7243 21.8454 68.3839 21.5354H72.405C72.4795 22.1677 72.7649 22.7752 73.0876 23.3951L79.1193 36.0287C79.4296 36.6858 79.653 37.0701 80.3728 37.6033H76.0166C77.2329 37.0701 77.2949 36.5122 76.9598 35.8179L76.1655 34.1442H67.1304L66.6464 35.1609C66.1127 36.3015 66.3857 37.1197 67.3786 37.6033H63.7174C64.5365 37.0701 64.9709 36.2767 65.4673 35.26M75.6939 33.1648L71.6231 24.5729L67.5772 33.1648H75.6939Z" fill="#1D1D1B"/>
<path d="M82.8551 36.599C82.2718 36.599 81.8871 37.1073 81.6885 37.6652V32.3216C82.8551 35.7807 85.9082 36.8717 88.2787 36.8717C90.6491 36.8717 92.3742 35.8799 92.3742 33.673C92.3742 32.2968 91.7165 31.2554 89.346 30.6231L85.9578 29.7304C83.3391 29.0238 81.9615 27.7468 81.9615 25.5895C81.9615 22.8123 84.3568 21.3122 87.1989 21.3122C89.2839 21.3122 90.6615 22.1056 91.5551 22.1056C92.064 22.1056 92.548 21.6965 92.7962 21.0642V26.2466C91.9523 23.7546 89.9914 22.304 87.2486 22.304C84.754 22.304 83.5129 23.4942 83.5129 25.0812C83.5129 26.5317 84.5306 27.3748 86.6901 27.9575L89.8921 28.8006C92.821 29.5693 94.0125 30.8835 94.0125 33.0283C94.0125 36.3138 91.2076 37.8388 88.3655 37.8388C85.7965 37.8388 83.9348 36.5866 82.8675 36.5866" fill="#1D1D1B"/>
<path d="M49.8173 22.5892C50.0407 22.5892 50.2393 22.5892 50.4254 22.614V21.5477H39.5659C38.6227 21.5477 38.1138 21.5229 37.605 21.0642V25.9738C38.5482 23.2835 39.1812 22.5892 41.1917 22.5892H44.071V35.1484C44.071 36.4006 43.7111 37.2065 42.47 37.6156H47.5337C46.2926 37.2065 45.9327 36.4006 45.9327 35.1484V22.5892H49.8049H49.8173Z" fill="#1D1D1B"/>
<path d="M63.0597 21.5477H52.2002V22.614C52.3864 22.5892 52.5973 22.5892 52.8083 22.5892H56.6805V35.1484C56.6805 36.4006 56.3206 37.2065 55.0795 37.6156H60.1432C58.9021 37.2065 58.5422 36.4006 58.5422 35.1484V22.5892H61.4215C63.432 22.5892 64.065 23.2959 65.0082 25.9738V21.0642C64.4994 21.5229 63.9905 21.5477 63.0473 21.5477" fill="#1D1D1B"/>
<path d="M55.0299 4.58728C55.0299 4.58728 55.0175 4.58728 55.0051 4.58728C54.6824 4.51289 54.0246 4.4385 53.7143 4.31452C53.2799 4.15335 52.8331 3.84339 52.3864 3.73181L51.4555 3.48385C51.1701 3.37227 50.7481 3.23589 50.413 3.13671C50.4006 3.06232 50.3882 2.98793 50.3882 2.91354C50.3882 2.66558 50.3882 2.36803 50.0779 2.24405C50.0531 2.24405 50.0159 2.21925 49.9911 2.20685C49.507 2.09527 49.0975 2.00848 48.6259 1.8969C48.117 1.77292 46.9628 1.50016 46.454 1.38858C45.9575 1.3018 45.2625 1.23981 44.9646 1.2646C44.6668 1.2894 44.431 1.32659 44.2696 1.19021C44.2696 1.19021 44.0711 1.00424 43.9345 0.942252C43.798 0.880262 43.6367 0.89266 43.5002 0.929854C43.2519 0.991844 43.0037 1.06623 42.7679 1.16542C42.6438 0.743884 42.2715 0.421534 41.8743 0.26036C41.7378 0.19837 41.6261 0.123981 41.4648 0.0619913C41.3159 1.07102e-06 41.1173 0.0123991 40.9683 0.0619913C40.4595 0.161176 40.1616 0.557913 40.0996 1.05383C40.0996 1.05383 40.0996 1.10343 40.0996 1.11582C40.0251 1.94649 40.1244 2.75237 40.4347 3.52104C40.5836 3.89299 40.5836 4.27733 40.6208 4.66166C40.6581 4.97162 40.1244 5.00881 39.9134 5.03361C39.7024 5.0584 39.6031 5.24437 39.6404 5.35596C39.7397 5.6783 39.5907 5.90147 39.4294 6.13703C39.3549 6.24861 39.2929 6.37259 39.2681 6.52137C39.2308 6.79413 39.3425 6.93051 39.6031 6.93051C39.8886 6.93051 40.1368 6.79413 40.3354 6.60816C40.4223 6.52137 40.5091 6.45938 40.596 6.53377C40.7201 6.64535 40.8691 6.69494 41.018 6.78173C41.2042 6.89331 41.1917 7.01729 41.0304 7.12887C40.9187 7.21566 40.807 7.27765 40.6581 7.27765C40.2733 7.27765 39.8762 7.27765 39.5907 7.6124C39.5411 7.67439 39.4542 7.69918 39.3798 7.71158C39.2681 7.73638 39.1191 7.79837 39.2184 7.56281C39.2432 7.51321 39.2681 7.43883 39.1936 7.41403C39.1315 7.38923 39.0943 7.43883 39.0571 7.48842C38.8337 7.78597 38.7964 8.14551 38.8957 8.48026C39.0571 9.00098 39.1688 9.4845 38.9206 10.0052C38.7964 10.278 38.9702 10.6499 39.206 10.6127C39.5659 10.5507 39.8265 10.7863 40.1492 10.8607C40.2113 10.8731 40.2609 10.8855 40.2361 10.9599C40.2113 11.0219 40.1989 11.0962 40.0996 11.0715C40.0251 11.0467 39.9507 11.0219 39.8762 10.9847C39.8265 10.9599 39.7645 10.9227 39.7645 11.0219C39.7645 11.0962 40.112 11.493 40.174 11.4682C40.4967 11.3814 40.6581 11.5674 40.7946 11.8153C40.9311 12.0757 41.1173 12.3113 41.4275 12.3485C41.6758 12.3732 41.7875 12.4972 41.8992 12.6956C42.0233 12.9188 42.2591 13.1171 42.4825 13.1295C42.9665 13.1543 43.3264 13.4395 43.736 13.613C44.2572 13.8362 44.7413 14.1462 45.3494 14.0098C45.61 13.9478 45.7962 14.0222 46.0196 14.1586C46.2306 14.2949 46.4043 14.5429 46.7518 14.4561C47.2234 14.3321 47.5089 14.0842 47.6082 13.613C47.7199 13.0551 48.0798 12.646 48.4893 12.2865C48.6259 12.1749 48.7748 12.1377 48.9485 12.2121C49.3581 12.398 49.8049 12.4228 50.2393 12.4724C51.1577 12.5592 51.9892 12.3485 52.6346 11.6418C52.7339 11.5302 52.8083 11.431 52.6966 11.2822C52.5973 11.1582 52.4981 11.1954 52.3988 11.2698C52.3243 11.3194 52.2622 11.3938 52.1878 11.307C52.1133 11.2326 52.1878 11.1458 52.2374 11.0962C52.3491 10.9971 52.3491 10.8855 52.3367 10.7739C52.3243 10.4887 52.3739 10.3648 52.4236 10.154C52.4236 10.0796 52.4484 10.0052 52.3988 9.91843C52.1381 9.55889 51.7038 10.5879 51.5796 10.7615C51.4059 11.1086 50.9591 11.2946 50.5992 11.121C50.1772 10.9475 49.718 10.7491 49.445 10.3772C49.1471 9.86884 49.1595 9.23654 49.507 8.74062C49.5815 8.64144 49.6684 8.55465 49.7552 8.45547C50.2269 7.94715 50.8226 7.98434 51.4307 8.09592C51.9147 8.18271 52.1381 8.54225 52.2622 8.97618C52.2995 9.10016 52.2747 9.24894 52.436 9.28613C52.6098 9.32333 52.6966 9.18695 52.7835 9.05057C53.0565 8.61664 53.3172 8.18271 53.5902 7.76118C53.8136 7.41403 53.9874 7.05449 53.9501 6.63295C53.9377 6.44698 54.037 6.3354 54.1983 6.26101C54.8065 6.01305 55.1167 5.54193 55.1416 4.89723C55.1416 4.79804 55.1416 4.66166 55.0175 4.61207L55.0299 4.58728ZM40.6705 7.93475C40.8194 7.73638 40.8442 7.40163 41.229 7.53801C41.291 7.56281 41.3779 7.5752 41.3903 7.63719C41.4151 7.73638 41.3034 7.72398 41.2538 7.76118C41.1917 7.81077 41.0676 7.86036 41.1173 7.93475C41.3655 8.36868 40.6829 8.2199 40.6333 8.14551C40.5836 8.07113 40.6084 8.00914 40.6705 7.93475ZM41.4275 8.31909C41.5641 8.34388 41.7626 8.35628 41.7626 8.50506C41.7626 8.67863 41.229 8.64144 41.229 8.50506C41.229 8.39348 41.291 8.29429 41.4275 8.31909ZM39.417 8.34388C39.5783 8.2571 39.69 8.09592 39.901 8.13312C40.0624 8.2075 40.2361 8.17031 40.3974 8.14551C40.4967 8.13312 40.8939 8.48026 40.9187 8.57945C40.9311 8.69103 40.8566 8.72822 40.7698 8.72822C40.6333 8.72822 40.4223 8.72822 40.3974 8.66623C40.2982 8.44307 39.839 8.51746 39.7769 8.54225C39.6652 8.59184 39.5659 8.71582 39.4418 8.61664C39.3425 8.54225 39.1564 8.46786 39.417 8.33148V8.34388ZM40.9311 9.63328C40.7698 9.76966 40.5712 9.96803 40.4223 9.99282C40.0996 10.0424 39.4418 10.1292 39.3301 9.94323C39.206 9.70767 39.479 9.60848 39.628 9.5217C39.7397 9.44731 39.9507 9.39772 39.9507 9.68287C39.9507 9.85644 40.0499 9.70767 40.0624 9.68287C40.2485 9.43491 40.4471 9.32333 40.7574 9.4721C40.9063 9.54649 40.9435 9.38532 41.0056 9.29853C41.0304 9.26134 41.1297 9.27374 41.1421 9.29853C41.1049 9.43491 41.0428 9.53409 40.9311 9.62088V9.63328ZM41.3903 11.8897C41.291 11.8525 41.1669 11.8897 41.1049 11.7781C41.1049 11.7657 41.2166 11.6666 41.2786 11.6418C41.3779 11.617 41.44 11.6914 41.4772 11.7533C41.4772 11.8277 41.44 11.9021 41.3903 11.8897ZM41.4896 9.67047C41.3531 9.67047 41.2538 9.58369 41.2538 9.39772C41.2538 9.14976 41.4275 8.91419 41.6137 8.95139C41.7875 8.98858 41.9984 9.01338 42.0233 9.24894C42.0357 9.42251 41.7378 9.67047 41.4896 9.65808V9.67047ZM42.3335 10.6003C42.135 10.6003 41.9116 10.3524 41.986 10.1292C42.0233 9.99282 42.2094 9.90604 42.3335 9.79445C42.4577 9.95563 42.7431 9.79445 42.8176 10.03C42.8548 10.1416 42.4452 10.6003 42.3335 10.6003ZM46.9504 8.97618C46.7146 8.96378 46.6153 9.23654 46.4415 9.34812C46.2802 9.45971 46.2802 9.38532 46.2554 9.28613C46.2181 9.05057 46.6401 8.61664 46.8759 8.61664C47.2979 8.61664 47.1241 9.00098 46.9504 8.98858V8.97618ZM47.6082 9.26134C47.7199 9.18695 47.8192 9.26134 47.8564 9.36052C47.8688 9.57129 47.3972 10.1044 47.2731 10.0424C47.211 10.0176 47.0621 9.90604 47.1241 9.78206C47.2234 9.55889 47.4096 9.39772 47.6082 9.27374V9.26134ZM46.6401 11.0219C46.4788 11.0219 46.3919 11.0343 46.3174 11.0219C46.2057 10.9971 46.0692 10.9351 46.0692 10.8235C46.0692 10.6623 46.2182 10.6747 46.3298 10.7119C46.4415 10.7491 46.5284 10.6375 46.6525 10.6623C46.8015 10.6871 46.938 10.7243 46.9256 10.8979C46.9256 11.0591 46.7766 11.0343 46.6649 11.0343C46.6277 11.0343 46.5905 11.0343 46.6525 11.0343L46.6401 11.0219ZM46.3919 8.49266C46.1685 8.57945 45.9575 8.69103 45.7589 8.80261C45.6721 8.8398 45.5976 8.8646 45.5604 8.76542C45.5107 8.65383 46.0196 8.2447 46.2554 8.08352C46.3671 8.00914 46.6525 8.12072 46.6649 8.2447C46.6277 8.36868 46.5036 8.44307 46.4043 8.48026L46.3919 8.49266ZM45.9451 8.98858C45.9451 8.98858 46.0072 8.98858 46.0072 9.03817C46.0072 9.10016 45.6224 9.33573 45.5728 9.32333C45.4611 9.28613 45.4859 9.16215 45.5355 9.13736C45.6597 9.06297 45.8086 9.03817 45.9451 8.98858ZM45.7962 9.99282C45.8706 10.0176 46.0072 9.93083 46.0072 10.0672C46.0072 10.216 45.8706 10.1912 45.7714 10.1788C45.7341 10.1788 45.6969 10.1788 45.6597 10.1664C45.4735 10.1664 45.2873 10.1788 45.1136 10.2904C45.0639 10.3152 44.9646 10.34 44.9398 10.2532C44.915 10.1912 44.9895 10.1292 45.0391 10.1416C45.3122 10.1912 45.5231 9.91843 45.7962 9.99282ZM45.8831 10.9475C45.7962 11.0343 45.6721 11.0962 45.548 11.0962C45.5107 11.0962 45.4114 11.121 45.4487 11.0219C45.4859 10.8855 45.61 10.8731 45.6969 10.8731C45.7962 10.8731 45.9203 10.9103 45.8955 10.9351L45.8831 10.9475ZM45.126 9.68287C44.9771 9.68287 44.8281 9.68287 44.6296 9.68287C44.4682 9.64568 44.2572 9.67047 44.0587 9.69527C44.009 9.69527 43.9345 9.73246 43.9221 9.65808C43.9221 9.62088 43.9842 9.55889 44.0338 9.54649C44.3813 9.43491 44.7537 9.47211 45.126 9.41011C45.2005 9.41011 45.2873 9.45971 45.2997 9.54649C45.2997 9.65808 45.2253 9.68287 45.1384 9.68287H45.126ZM44.0587 9.02577C44.0587 9.02577 43.9842 9.02577 43.9594 9.02577C43.8228 9.00098 43.5746 9.10016 43.5622 8.97618C43.5622 8.82741 43.798 8.82741 43.947 8.80261C44.1455 8.76542 44.4806 8.80261 44.4682 8.93899C44.4558 9.17455 44.1704 8.93899 44.0462 9.03817L44.0587 9.02577ZM43.9594 8.30669C43.9594 8.30669 43.9966 8.45547 43.8477 8.44307C43.4629 8.41827 43.0658 8.44307 42.6314 8.44307C43.0286 8.12072 43.4629 8.19511 43.8601 8.14551C43.9718 8.13312 43.9842 8.2323 43.9594 8.30669ZM43.5002 7.78597C43.314 7.84796 43.1278 7.90995 42.9293 7.84796C42.892 7.83556 42.8548 7.79837 42.8052 7.78597C42.7059 7.73638 42.6066 7.69918 42.5073 7.66199C42.6066 7.51321 42.7555 7.52561 42.9044 7.50082C42.9293 7.50082 42.9541 7.50082 42.9789 7.50082C43.1899 7.45122 43.3264 7.6124 43.4878 7.71158C43.525 7.73638 43.525 7.78597 43.4878 7.79837L43.5002 7.78597ZM43.2768 11.1706C43.1651 11.1706 43.0037 11.2202 43.0534 11.0095C43.0534 10.9723 43.0658 10.9475 43.0782 10.9103C43.103 10.7863 42.9169 10.6003 43.1278 10.5259C43.3636 10.4392 43.6243 10.5259 43.8601 10.6003C43.8973 10.6003 43.9221 10.6623 43.8849 10.6747C43.6119 10.7491 43.5995 11.1582 43.2768 11.183V11.1706ZM44.5551 11.4806C44.5303 11.7533 44.2448 11.9765 44.0338 11.8897C43.8849 11.8277 43.6987 11.7533 43.9594 11.5798C44.1083 11.4806 43.9842 11.4186 43.9221 11.3938C43.8477 11.3566 43.8973 11.2078 43.9966 11.2698C44.0959 11.3318 44.1952 11.3566 44.3317 11.2822C44.5179 11.183 44.5923 11.3194 44.5551 11.4806ZM45.9203 12.2617C45.8458 12.4352 45.6224 12.4104 45.4735 12.4724C45.2873 12.5468 45.0763 12.584 44.8654 12.5964C44.7785 12.5964 44.6047 12.6336 44.6047 12.4476C44.6047 12.2741 44.7288 12.1997 44.8654 12.1749C44.9647 12.1625 45.1136 12.1501 45.1756 12.2617C45.2129 12.3361 45.2253 12.4228 45.337 12.3608C45.4114 12.3237 45.4859 12.2617 45.4611 12.1749C45.399 11.9641 45.5604 11.9145 45.6969 11.8649C45.9327 11.7781 46.1685 11.7038 46.4167 11.6294C46.6649 11.5426 46.8139 11.6914 46.9504 11.8649C46.8387 11.9517 46.7022 11.9393 46.5781 11.9393C46.305 11.9393 46.0444 11.9393 45.9203 12.2617ZM46.5036 13.2783C46.5036 13.2783 46.3671 13.3279 46.3671 13.2783C46.3671 13.1047 46.4664 12.9312 46.5408 12.7948C46.6277 12.6584 46.8263 12.7204 46.9007 12.9064C46.727 12.9931 46.6774 13.2039 46.5036 13.2907V13.2783ZM47.3599 13.0799C47.2358 13.0303 47.0993 13.2535 47.0124 13.0427C46.9876 12.9931 47.0249 12.894 46.9132 12.894C46.8759 12.708 46.9256 12.5592 47.149 12.5964C47.3351 12.6212 47.5213 12.7204 47.5337 12.9684C47.5337 13.0799 47.4344 13.1171 47.3724 13.0799H47.3599ZM48.1294 12.2121C48.1046 12.3361 48.0922 12.4476 47.9433 12.4228C47.8688 12.4104 47.7695 12.4228 47.7695 12.2989C47.7695 12.1501 47.906 12.1749 47.9929 12.1501C48.055 12.1253 48.1418 12.1129 48.117 12.2121H48.1294ZM48.1667 11.4806C48.0674 11.5426 48.0053 11.6418 47.9308 11.7285C47.7819 11.8897 47.5958 12.0137 47.3475 11.8773C47.2234 11.8029 47.0869 11.8773 46.9504 11.8773C46.9132 11.6418 47.1117 11.5798 47.2607 11.555C47.5461 11.5054 47.8192 11.4558 48.0922 11.3318C48.1418 11.307 48.2163 11.2946 48.2535 11.3566C48.2908 11.4186 48.2163 11.4558 48.1791 11.4806H48.1667ZM49.7801 10.9103C50.0283 11.0591 50.2889 11.1706 50.5495 11.2574C50.6861 11.307 50.8474 11.3442 50.9839 11.3194C51.2446 11.2698 51.4804 11.121 51.6293 10.8979C51.7782 10.6251 51.9023 10.34 52.0761 10.0796C52.1381 10.0052 52.2374 9.83165 52.3243 9.94323C52.3491 9.98042 52.3491 10.0548 52.3367 10.1168C52.3243 10.2036 52.1754 10.4144 52.163 10.4516C52.1133 10.5755 52.1009 10.7367 52.014 10.8359C51.9023 10.9847 51.7906 11.0838 51.9892 11.2574C52.0885 11.3566 52.0388 11.4806 51.8775 11.5426C51.5796 11.6666 51.2942 11.7781 50.9715 11.8525C50.6364 11.9269 50.3882 11.8401 50.1524 11.617C49.8794 11.3566 49.5567 11.2326 49.1968 11.1706C49.0478 11.1458 48.9113 11.0467 48.8741 10.9475C48.7748 10.6871 48.601 10.4763 48.4397 10.2532C48.39 10.1664 48.3528 10.0672 48.3404 9.95563C48.328 9.80685 48.3404 9.64568 48.5638 9.80685C48.6134 9.84405 48.6507 9.89364 48.7127 9.84405C48.7624 9.79445 48.7376 9.73246 48.7127 9.68287C48.6755 9.53409 48.6134 9.37292 48.5886 9.22414C48.5762 9.13736 48.5514 9.01338 48.6631 8.98858C48.7996 8.95139 48.9113 9.23654 48.961 9.43491C48.9858 9.5217 48.9982 9.64568 49.023 9.84405C49.0478 10.03 49.1099 10.216 49.1968 10.3772C49.3085 10.6127 49.5443 10.7739 49.7552 10.9103H49.7801ZM54.1735 5.28157C53.9874 5.30636 53.4661 5.60392 53.4165 5.91387C53.3544 6.26101 53.5282 6.68254 53.4413 6.80653C53.2799 7.02969 52.3367 7.11648 51.952 7.02969C51.5424 6.89331 51.1453 6.91811 51.2818 6.49657C51.3066 6.40979 51.3438 6.3106 51.257 6.23622C51.1577 6.16183 51.0212 6.13703 50.9343 6.22382C50.8226 6.3354 50.6612 6.42219 50.6612 6.60816C50.6612 6.85612 50.4999 6.93051 50.2889 6.9925C49.8669 7.12887 49.4326 7.21566 49.0478 7.40163C48.7251 7.55041 46.7642 7.6124 46.6774 7.26525C46.6525 7.16607 46.6029 7.06688 46.4664 7.10408C46.3795 7.12887 46.0816 6.9429 46.0072 7.00489C45.9948 7.01729 46.1561 7.29005 46.1809 7.31485C46.3547 7.52561 46.3174 7.68679 46.0444 7.69918C45.7589 7.71158 45.5976 7.89755 45.4114 8.05873C45.2873 8.17031 45.1632 8.26949 45.0515 8.36868C45.0143 8.40587 44.9646 8.45547 44.9026 8.43067C44.8157 8.39348 44.8405 8.30669 44.8654 8.2571C45.0267 7.99674 44.915 7.53801 45.4114 7.51321C45.4735 7.51321 45.5852 7.32724 45.5852 7.26525C45.5852 7.04209 45.2129 7.02969 45.0391 7.32724C44.9274 7.52561 44.7661 7.68679 44.6047 7.86036C44.5303 7.94715 44.4062 8.02153 44.2945 7.93475C44.1952 7.86036 44.2945 7.76117 44.3317 7.66199C44.4186 7.45122 44.6544 7.29005 44.5303 6.9925C44.493 6.90571 44.6544 6.63295 44.8902 6.65775C44.9771 6.65775 45.1012 6.62056 45.126 6.52137C45.2005 6.12463 44.642 6.43458 44.4558 6.74454C44.3193 6.9553 44.2076 7.19086 43.9842 7.32724C43.9221 7.36444 43.8228 7.41403 43.7608 7.35204C43.6615 7.26525 43.7608 7.20326 43.8104 7.16607C43.8849 7.10408 43.8477 7.04209 43.8104 6.9801C43.798 6.93051 43.7608 6.9429 43.736 6.9801C43.5002 7.31485 43.1651 7.14127 42.8796 7.12887C42.3956 7.10408 41.924 7.01729 41.44 7.06688C41.4027 7.06688 41.3283 7.06688 41.3283 7.01729C41.3283 6.9553 41.3903 6.9553 41.4275 6.9677C41.6385 7.00489 41.7999 6.86852 41.986 6.81892C42.3832 6.69494 42.7803 6.42219 43.1651 6.85612C43.2395 6.93051 43.3636 6.93051 43.4257 6.85612C43.6739 6.54617 43.9221 6.14943 44.2324 5.87667C44.4186 5.7155 43.9718 5.38075 43.8725 5.60392C43.7732 5.81468 43.6615 6.11224 43.5374 6.29821C43.4753 6.38499 43.4009 6.50897 43.2644 6.47178C43.1403 6.42219 42.681 6.39739 42.3832 6.42219C41.8123 6.45938 41.2786 6.3602 40.7698 6.14943C40.6829 6.11224 40.323 6.14943 40.2113 6.21142C40.0624 6.28581 39.6032 6.45938 39.6528 6.21142C39.7024 5.98826 39.8141 5.78989 39.839 5.55432C39.839 5.47994 39.901 5.41794 39.9755 5.41794C40.323 5.39315 40.5216 5.12039 40.7698 4.95922C41.0056 4.81044 41.1421 5.13279 40.9808 5.23197C40.7325 5.38075 40.9187 5.46754 41.0304 5.54192C41.3159 5.7279 41.6509 5.74029 41.986 5.76509C42.1226 5.77749 42.2591 5.76509 42.2467 6.01305C42.2343 6.23622 42.5197 6.27341 42.7059 6.07504C42.8796 5.88907 42.9541 5.54193 43.1899 5.33116C43.2892 5.23197 43.4629 5.15759 43.5002 5.02121C43.6119 4.68646 43.8601 4.56248 44.1704 4.74845C44.2448 4.79804 44.3813 4.87243 44.4062 4.77325C44.493 4.48809 44.6792 4.62447 44.7785 4.69886C45.0267 4.87243 45.2749 4.79804 45.548 4.78565C45.7962 4.77325 46.0816 4.94682 46.1933 4.56248C46.2181 4.48809 46.3174 4.53768 46.3795 4.56248C46.4291 4.57488 46.5036 4.61207 46.5408 4.56248C46.8511 4.24013 47.2731 4.09135 47.6454 3.85579C48.0922 3.55824 48.5266 3.1739 49.1347 3.24829C49.2588 3.26069 49.2712 3.1615 49.2588 3.08711C49.1347 2.62839 48.601 2.45481 48.2163 2.76476C48.117 2.85155 47.9805 2.86395 47.8564 2.87635C47.4592 2.90114 47.0497 2.95073 46.7022 3.13671C46.3547 3.33507 45.9823 3.35987 45.61 3.42186C45.4859 3.44666 45.3618 3.43426 45.2377 3.50865C45.1508 3.55824 45.0267 3.60783 44.9522 3.50865C44.8654 3.39706 44.5179 3.00033 44.3689 2.76476C44.2324 2.554 44.0214 2.36803 43.7732 2.25644C43.7112 2.23165 43.6243 2.16966 43.587 2.23165C43.5374 2.29364 43.5746 2.39282 43.6367 2.44242C43.6739 2.47961 43.736 2.49201 43.7856 2.5292C43.8477 2.59119 43.9842 2.62839 43.9345 2.72757C43.8725 2.85155 43.4629 3.24829 42.4577 2.5664C42.3211 2.46721 42.346 2.33083 42.408 2.20685C42.4576 2.12007 42.5321 2.03328 42.3708 1.97129C42.0605 1.84731 41.7502 2.13246 41.8371 2.45481C41.9364 2.85155 41.8992 3.24829 42.0109 3.64503C42.0605 3.8062 42.0481 3.99217 42.0481 4.15335C42.0481 4.20294 42.0233 4.28972 41.9488 4.20294C41.8371 4.05416 41.6385 4.02936 41.5517 3.84339C41.3283 3.39706 41.1173 2.93834 40.8194 2.5168C40.6705 2.31843 40.6208 2.08287 40.6084 1.83491C40.6084 1.72333 40.6084 1.59935 40.534 1.52496C40.2857 1.277 40.5712 0.657097 40.7325 0.483525C40.8566 0.347146 41.0552 0.285156 41.2414 0.26036C41.44 0.247962 41.6137 0.371942 41.7999 0.433933C42.197 0.570311 42.5445 0.83067 42.681 1.23981L42.7307 1.2894C43.0037 1.17782 43.2519 1.09103 43.525 1.02904C43.7856 0.95465 44.0462 1.06623 44.2076 1.2646C44.2945 1.37618 44.4682 1.43817 44.7909 1.41338C45.1136 1.38858 45.9823 1.38858 46.4291 1.47537C46.8759 1.56215 46.9132 1.58695 47.149 1.64894C47.9433 1.84731 49.8421 2.21925 49.9042 2.33083C49.9662 2.44242 49.718 2.59119 49.507 2.554C49.4202 2.5416 49.2836 2.5416 49.2588 2.61599C49.234 2.72757 49.3705 2.72757 49.4574 2.76476C49.6932 2.88874 49.718 2.98793 49.507 3.1615C49.234 3.38467 48.9237 3.55824 48.6383 3.76901C48.3528 3.96737 48.0177 4.14095 47.695 4.27733C47.4096 4.38891 47.1986 4.59967 46.938 4.73605C46.8635 4.77325 46.8387 4.86003 46.8511 4.94682C46.8635 5.02121 46.938 5.00881 46.9876 5.02121C47.5089 5.10799 48.3404 4.69886 48.601 4.21534C48.7624 3.91778 49.1347 3.8186 49.4202 4.00457C49.4946 4.05416 49.4946 4.05416 49.507 3.90538C49.5319 3.64503 49.5939 3.58304 49.7552 3.58304C49.8049 3.58304 49.8918 3.60783 49.9662 3.63263C50.0283 3.65742 50.413 3.75661 50.3634 4.12855C50.3262 4.40131 50.3261 4.4385 50.202 4.66166C50.0655 4.90963 49.7304 5.00881 49.4574 4.98401C49.3209 4.98401 49.1843 5.02121 49.0478 5.00881C48.7376 4.97162 48.4521 5.25677 48.1418 5.10799C48.0177 5.046 47.8812 4.93442 47.7943 5.13279C47.7199 5.29396 47.8688 5.40555 47.9929 5.45514C48.6879 5.78989 49.3829 5.88907 50.0779 5.43034C50.2889 5.30636 50.4999 5.30636 50.5495 5.31876C50.8722 5.35595 50.8846 5.21958 50.7357 4.98401C50.7109 4.94682 50.6612 4.90963 50.6985 4.86003C50.7357 4.79804 50.7978 4.81044 50.8474 4.82284C50.9219 4.83524 50.9839 4.86003 51.0584 4.90963C51.319 5.12039 51.6541 5.19478 51.9768 5.14519C52.3739 5.0956 52.7587 5.0708 53.069 5.40555C53.1062 5.44274 53.1682 5.49233 53.2179 5.44274C53.2675 5.39315 53.2055 5.34356 53.1931 5.29396C53.131 5.0832 52.5353 4.69886 52.4112 4.63687C52.0264 4.47569 51.6789 4.26493 51.3066 4.10375C50.9343 3.94258 50.624 3.69462 50.4875 3.31028C50.4751 3.27308 50.5123 3.22349 50.5495 3.24829C50.8226 3.35987 51.1453 3.49625 51.5548 3.62023C51.8651 3.70702 52.5477 3.90538 52.6842 3.96737C53.0317 4.12855 53.3048 4.32692 53.6523 4.47569C53.9005 4.58728 54.3845 4.71126 54.7444 4.81044C54.7941 4.81044 54.8065 4.87243 54.7817 4.90963C54.6948 5.0584 54.5955 5.19478 54.1611 5.26917L54.1735 5.28157ZM42.4577 4.73605C42.135 4.64927 42.0605 4.05416 42.6438 4.28972C42.9293 4.40131 43.736 4.28972 43.736 4.38891C43.736 4.51289 43.6367 4.61207 43.4629 4.62447C43.1775 4.63687 43.1651 4.93442 43.041 5.10799C42.9417 5.24437 42.9417 5.44274 42.7803 5.54192C42.7059 5.59152 42.681 5.74029 42.5818 5.7155C42.4577 5.6783 42.5445 5.56672 42.5321 5.47994C42.5321 5.36835 42.4328 5.39315 42.3956 5.45514C42.2963 5.65351 42.1722 5.54193 42.0605 5.47994C41.8868 5.38075 41.3034 5.25677 41.3283 5.14519C41.3531 5.046 41.4648 5.046 41.5889 5.0708C41.8123 5.14519 41.9488 4.82284 42.2715 4.87243C42.4452 4.89723 42.6562 5.0956 42.6935 4.98401C42.7307 4.83524 42.5569 4.78565 42.4452 4.76085L42.4577 4.73605Z" fill="#1D1D1B"/>
<path d="M49.0975 5.83944C48.7996 6.01301 48.4521 6.00061 48.1294 6.0626C47.3724 6.21138 46.6401 6.0998 45.9327 5.82704C45.5231 5.66587 45.3246 5.21954 44.9522 5.00877C44.9026 4.98397 44.8902 4.87239 44.8281 4.92198C44.7537 4.98397 44.8281 5.03357 44.8778 5.08316C45.5728 5.93862 46.4664 6.40975 47.5709 6.44694C47.6702 6.44694 47.7819 6.44694 47.8812 6.44694C48.3528 6.42215 48.7748 6.27337 49.1471 5.98822C49.1844 5.96342 49.234 5.93862 49.2092 5.87663C49.1844 5.82704 49.1347 5.82704 49.0975 5.83944Z" fill="#1D1D1B"/>
<path d="M30.8907 7.71167H18.0951" stroke="#1D1D1B" stroke-width="0.4" stroke-miterlimit="10" stroke-linecap="round"/>
<path d="M75.905 7.71167H63.0969" stroke="#1D1D1B" stroke-width="0.4" stroke-miterlimit="10" stroke-linecap="round"/>
</g>
<defs>
<clipPath id="clip0_4103_50">
<rect width="94" height="38" fill="white"/>
</clipPath>
</defs>
</svg>
