<svg width="77" height="69" viewBox="0 0 77 69" fill="none" xmlns="http://www.w3.org/2000/svg">
<path d="M76.345 21.5625C76.345 21.5625 76.2865 21.5625 76.228 21.5625C74.706 21.2113 71.6034 20.8601 70.14 20.2748C68.0911 19.5138 65.9837 18.0505 63.8764 17.5237L59.486 16.3531C58.1396 15.8263 56.1493 15.1824 54.5688 14.7142C54.5102 14.363 54.4517 14.0118 54.4517 13.6606C54.4517 12.4899 54.4517 11.0852 52.9882 10.4998C52.8712 10.4998 52.6955 10.3828 52.5785 10.3243C50.2955 9.79746 48.3637 9.38773 46.1393 8.86094C43.7392 8.27562 38.2951 6.98791 35.895 6.46112C33.5535 6.05139 30.2754 5.75873 28.8704 5.87579C27.4655 5.99286 26.3533 6.16845 25.5923 5.5246C25.5923 5.5246 24.6557 4.64661 24.0117 4.35395C23.3678 4.06129 22.6068 4.11982 21.9629 4.29542C20.7921 4.58808 19.6214 4.93927 18.5091 5.40753C17.9238 3.41743 16.1676 1.89559 14.2944 1.13467C13.6505 0.842009 13.1236 0.490815 12.3626 0.198153C11.6602 -0.0945091 10.7235 -0.0359767 10.0211 0.198153C7.621 0.666412 6.21608 2.53945 5.92339 4.88074C5.92339 4.88074 5.92339 5.11487 5.92339 5.1734C5.57216 9.09507 6.04047 12.8997 7.50393 16.5287C8.20639 18.2847 8.20639 20.0992 8.382 21.9137C8.55762 23.377 6.04047 23.5526 5.04532 23.6696C4.05016 23.7867 3.58186 24.6647 3.75747 25.1915C4.22578 26.7133 3.52332 27.7669 2.76232 28.879C2.41109 29.4058 2.1184 29.9911 2.00132 30.6935C1.82571 31.9812 2.35255 32.6251 3.58186 32.6251C4.92824 32.6251 6.09901 31.9812 7.03562 31.1032C7.44539 30.6935 7.85516 30.4009 8.26493 30.752C8.85031 31.2788 9.55277 31.513 10.2552 31.9227C11.1333 32.4495 11.0748 33.0348 10.3138 33.5616C9.78692 33.9713 9.26008 34.264 8.55762 34.264C6.74293 34.264 4.8697 34.264 3.52332 35.8444C3.28916 36.137 2.8794 36.2541 2.52817 36.3126C2.00132 36.4297 1.29886 36.7223 1.76717 35.6102C1.88424 35.3761 2.00132 35.0249 1.65009 34.9078C1.3574 34.7908 1.18178 35.0249 1.00617 35.259C-0.0475223 36.6638 -0.223137 38.3613 0.24517 39.9416C1.00617 42.4 1.53301 44.6827 0.362246 47.1411C-0.223137 48.4288 0.5964 50.1848 1.70863 50.0092C3.40624 49.7165 4.63555 50.8286 6.15754 51.1798C6.45024 51.2384 6.68439 51.2969 6.56731 51.6481C6.45024 51.9408 6.3917 52.292 5.92339 52.1749C5.57216 52.0578 5.22093 51.9408 4.8697 51.7652C4.63555 51.6481 4.34285 51.4725 4.34285 51.9408C4.34285 52.292 5.98193 54.165 6.27462 54.0479C7.79662 53.6382 8.55762 54.5162 9.20154 55.6868C9.84546 56.916 10.7235 58.0281 12.187 58.2037C13.3578 58.3208 13.8846 58.9061 14.4115 59.8426C14.9968 60.8962 16.1091 61.8327 17.1628 61.8913C19.4458 62.0083 21.1434 63.3546 23.0751 64.174C25.5337 65.2276 27.8167 66.6909 30.6851 66.0471C31.9144 65.7544 32.7925 66.1056 33.8462 66.7495C34.8413 67.3933 35.6609 68.5639 37.3 68.1542C39.5244 67.5689 40.8708 66.3982 41.3391 64.174C41.8659 61.5401 43.5636 59.6085 45.4953 57.9111C46.1392 57.3843 46.8417 57.2087 47.6612 57.5599C49.593 58.4379 51.7004 58.5549 53.7492 58.789C58.0811 59.1988 62.0031 58.2037 65.0471 54.8674C65.5154 54.3406 65.8667 53.8723 65.3398 53.1699C64.8715 52.5846 64.4032 52.7602 63.9349 53.1114C63.5837 53.3455 63.291 53.6967 62.9398 53.287C62.5885 52.9358 62.9398 52.5261 63.1739 52.292C63.7008 51.8237 63.7008 51.2969 63.6422 50.7701C63.5837 49.4239 63.8178 48.8385 64.052 47.8435C64.052 47.4923 64.1691 47.1411 63.9349 46.7314C62.7056 45.0339 60.6568 49.8921 60.0714 50.7116C59.2518 52.3505 57.1445 53.2285 55.4468 52.409C53.4565 51.5896 51.2906 50.653 50.0028 48.8971C48.5979 46.4972 48.6564 43.5121 50.2955 41.1708C50.6467 40.7025 51.0565 40.2928 51.4662 39.8246C53.6907 37.4247 56.5005 37.6003 59.3689 38.1271C61.6519 38.5368 62.7056 40.2343 63.291 42.2829C63.4666 42.8682 63.3495 43.5706 64.1105 43.7462C64.9301 43.9218 65.3398 43.278 65.7496 42.6341C67.0374 40.5855 68.2667 38.5368 69.5546 36.5467C70.6083 34.9078 71.4278 33.2104 71.2522 31.2203C71.1937 30.3423 71.662 29.8155 72.423 29.4643C75.2914 28.2937 76.7548 26.0695 76.8719 23.0258C76.8719 22.5575 76.8719 21.9137 76.2865 21.6795L76.345 21.5625ZM8.61616 37.3662C9.31862 36.4297 9.43569 34.8493 11.2504 35.4932C11.5431 35.6102 11.9528 35.6688 12.0114 35.9614C12.1285 36.4297 11.6016 36.3712 11.3675 36.5467C11.0748 36.7809 10.4894 37.015 10.7235 37.3662C11.8943 39.4148 8.67469 38.7124 8.44054 38.3613C8.20639 38.0101 8.32346 37.7174 8.61616 37.3662ZM12.187 39.1807C12.8309 39.2978 13.7675 39.3563 13.7675 40.0587C13.7675 40.8781 11.2504 40.7025 11.2504 40.0587C11.2504 39.5319 11.5431 39.0636 12.187 39.1807ZM2.70378 39.2978C3.46478 38.888 3.99162 38.1271 4.98678 38.3027C5.74778 38.6539 6.56731 38.4783 7.32831 38.3613C7.79662 38.3027 9.66985 39.9416 9.78692 40.4099C9.84546 40.9367 9.49423 41.1123 9.08446 41.1123C8.44054 41.1123 7.44539 41.1123 7.32831 40.8196C6.86 39.766 4.69409 40.1172 4.40139 40.2343C3.87455 40.4684 3.40624 41.0537 2.82086 40.5855C2.35255 40.2343 1.47448 39.8831 2.70378 39.2392V39.2978ZM9.84546 45.3851C9.08446 46.029 8.14785 46.9655 7.44539 47.0826C5.92339 47.3167 2.82086 47.7264 2.29401 46.8484C1.70863 45.7363 2.99647 45.2681 3.69893 44.8583C4.22578 44.5071 5.22093 44.273 5.22093 45.6193C5.22093 46.4387 5.68924 45.7363 5.74778 45.6193C6.62585 44.4486 7.56246 43.9218 9.02592 44.6242C9.72838 44.9754 9.904 44.2145 10.1967 43.8048C10.3138 43.6292 10.7821 43.6877 10.8406 43.8048C10.665 44.4486 10.3723 44.9169 9.84546 45.3266V45.3851ZM12.0114 56.038C11.5431 55.8624 10.9577 56.038 10.665 55.5112C10.665 55.4527 11.1918 54.9844 11.4845 54.8674C11.9528 54.7503 12.2455 55.1015 12.4211 55.3942C12.4211 55.7454 12.2455 56.0966 12.0114 56.038ZM12.4797 45.5607C11.8358 45.5607 11.3675 45.151 11.3675 44.273C11.3675 43.1024 12.187 41.9903 13.0651 42.1659C13.8846 42.3414 14.8798 42.4585 14.9968 43.5706C15.0554 44.3901 13.6505 45.5607 12.4797 45.5022V45.5607ZM16.5188 49.9507C15.5822 49.9507 14.5285 48.78 14.8798 47.7264C15.0554 47.0826 15.9335 46.6728 16.5188 46.1461C17.1042 46.907 18.4506 46.1461 18.8018 47.2582C18.9774 47.785 17.0457 49.9507 16.5188 49.9507ZM38.2366 42.2829C37.1243 42.2244 36.656 43.5121 35.8365 44.0389C35.0755 44.5657 35.0755 44.2145 34.9584 43.7462C34.7828 42.6341 36.7731 40.5855 37.8853 40.5855C39.8756 40.5855 39.0561 42.4 38.2366 42.3415V42.2829ZM41.3391 43.6292C41.8659 43.278 42.3343 43.6292 42.5099 44.0974C42.5684 45.0925 40.344 47.6094 39.7586 47.3167C39.4659 47.1996 38.7634 46.6728 39.0561 46.0875C39.5244 45.0339 40.4025 44.273 41.3391 43.6877V43.6292ZM36.7731 51.9408C36.0121 51.9408 35.6023 51.9993 35.2511 51.9408C34.7243 51.8237 34.0803 51.531 34.0803 51.0042C34.0803 50.2433 34.7828 50.3019 35.3097 50.4775C35.8365 50.653 36.2463 50.1263 36.8316 50.2433C37.5341 50.3604 38.178 50.536 38.1195 51.3554C38.1195 52.1164 37.417 51.9993 36.8902 51.9993C36.7146 51.9993 36.539 51.9993 36.8316 51.9993L36.7731 51.9408ZM35.6023 40.0002C34.5487 40.4099 33.5535 40.9367 32.6169 41.4635C32.2071 41.6391 31.8559 41.7561 31.6803 41.2879C31.4461 40.7611 33.8462 38.8295 34.9584 38.0686C35.4853 37.7174 36.8316 38.2442 36.8902 38.8295C36.7146 39.4148 36.1292 39.766 35.6609 39.9416L35.6023 40.0002ZM33.495 42.3415C33.495 42.3415 33.7877 42.3415 33.7877 42.5756C33.7877 42.8682 31.973 43.9804 31.7388 43.9218C31.212 43.7462 31.329 43.1609 31.5632 43.0438C32.1486 42.6926 32.851 42.5756 33.495 42.3415ZM32.7925 47.0826C33.1437 47.1996 33.7877 46.7899 33.7877 47.4338C33.7877 48.1362 33.1437 48.0191 32.6754 47.9606C32.4998 47.9606 32.3242 47.9606 32.1486 47.902C31.2705 47.902 30.3924 47.9606 29.5729 48.4874C29.3387 48.6044 28.8704 48.7215 28.7534 48.3118C28.6363 48.0191 28.9875 47.7264 29.2217 47.785C30.5095 48.0191 31.5047 46.7314 32.7925 47.0826ZM33.2023 51.5896C32.7925 51.9993 32.2071 52.292 31.6217 52.292C31.4461 52.292 30.9778 52.409 31.1534 51.9408C31.329 51.2969 31.9144 51.2384 32.3242 51.2384C32.7925 51.2384 33.3779 51.414 33.2608 51.531L33.2023 51.5896ZM29.6314 45.6193C28.929 45.6193 28.2265 45.6193 27.2899 45.6193C26.5289 45.4437 25.5337 45.5607 24.5971 45.6778C24.363 45.6778 24.0117 45.8534 23.9532 45.5022C23.9532 45.3266 24.2459 45.0339 24.4801 44.9754C26.1191 44.4486 27.8753 44.6242 29.6314 44.3316C29.9827 44.3316 30.3924 44.5657 30.451 44.9754C30.451 45.5022 30.0997 45.6193 29.69 45.6193H29.6314ZM24.5971 42.5171C24.5971 42.5171 24.2459 42.5171 24.1288 42.5171C23.4849 42.4 22.3141 42.8682 22.2556 42.2829C22.2556 41.5805 23.3678 41.5805 24.0703 41.4635C25.0069 41.2879 26.5874 41.4635 26.5289 42.1073C26.4704 43.2194 25.124 42.1073 24.5386 42.5756L24.5971 42.5171ZM24.1288 39.1222C24.1288 39.1222 24.3044 39.8246 23.602 39.766C21.7873 39.649 19.9141 39.766 17.8652 39.766C19.7384 38.2442 21.7873 38.5954 23.6605 38.3613C24.1874 38.3027 24.2459 38.771 24.1288 39.1222ZM21.9629 36.6638C21.0848 36.9565 20.2068 37.2491 19.2701 36.9565C19.0945 36.8979 18.9189 36.7223 18.6848 36.6638C18.2164 36.4297 17.7481 36.2541 17.2798 36.0785C17.7481 35.3761 18.4506 35.4346 19.1531 35.3176C19.2701 35.3176 19.3872 35.3176 19.5043 35.3176C20.4994 35.0834 21.1434 35.8444 21.9044 36.3126C22.08 36.4297 22.08 36.6638 21.9044 36.7223L21.9629 36.6638ZM20.9092 52.6432C20.3824 52.6432 19.6214 52.8773 19.8555 51.8822C19.8555 51.7066 19.9141 51.5896 19.9726 51.414C20.0897 50.8286 19.2116 49.9507 20.2068 49.5995C21.319 49.1897 22.5483 49.5995 23.6605 49.9507C23.8361 49.9507 23.9532 50.2433 23.7776 50.3019C22.4897 50.653 22.4312 52.5846 20.9092 52.7017V52.6432ZM26.9387 54.1065C26.8216 55.3942 25.4752 56.4478 24.4801 56.038C23.7776 55.7454 22.8995 55.3942 24.1288 54.5747C24.8313 54.1065 24.2459 53.8138 23.9532 53.6967C23.602 53.5211 23.8361 52.8187 24.3044 53.1114C24.7727 53.4041 25.2411 53.5211 25.885 53.1699C26.7631 52.7017 27.1143 53.3455 26.9387 54.1065ZM33.3779 57.794C33.0267 58.6134 31.973 58.4964 31.2705 58.789C30.3924 59.1402 29.3973 59.3158 28.4021 59.3744C27.9924 59.3744 27.1728 59.55 27.1728 58.672C27.1728 57.8525 27.7582 57.5013 28.4021 57.3843C28.8704 57.3257 29.5729 57.2672 29.8656 57.794C30.0412 58.1452 30.0997 58.5549 30.6266 58.2623C30.9778 58.0867 31.329 57.794 31.212 57.3843C30.9193 56.3892 31.6803 56.1551 32.3242 55.921C33.4364 55.5112 34.5487 55.16 35.7194 54.8088C36.8902 54.3991 37.5926 55.1015 38.2366 55.921C37.7097 56.3307 37.0658 56.2722 36.4804 56.2722C35.1926 56.2722 33.9633 56.2722 33.3779 57.794ZM36.1292 62.5937C36.1292 62.5937 35.4853 62.8278 35.4853 62.5937C35.4853 61.7742 35.9536 60.9547 36.3048 60.3109C36.7146 59.667 37.6512 59.9597 38.0024 60.8377C37.1829 61.2474 36.9487 62.2425 36.1292 62.6522V62.5937ZM40.1683 61.6571C39.583 61.423 38.939 62.4766 38.5293 61.4815C38.4122 61.2474 38.5878 60.7791 38.061 60.7791C37.8853 59.9012 38.1195 59.1988 39.1732 59.3744C40.0513 59.4914 40.9293 59.9597 40.9879 61.1303C40.9879 61.6571 40.5196 61.8327 40.2269 61.6571H40.1683ZM43.7977 57.5599C43.6806 58.1452 43.6221 58.672 42.9196 58.5549C42.5684 58.4964 42.1001 58.5549 42.1001 57.9696C42.1001 57.2672 42.744 57.3843 43.1538 57.2672C43.4465 57.1501 43.8563 57.0916 43.7392 57.5599H43.7977ZM43.9733 54.1065C43.505 54.3991 43.2123 54.8674 42.8611 55.2771C42.1586 56.038 41.2806 56.6233 40.1098 55.9795C39.5244 55.6283 38.8805 55.9795 38.2366 55.9795C38.061 54.8674 38.9976 54.5747 39.7 54.4576C41.0464 54.2235 42.3343 53.9894 43.6221 53.4041C43.8563 53.287 44.2075 53.2285 44.3831 53.5211C44.5587 53.8138 44.2075 53.9894 44.0319 54.1065H43.9733ZM51.5833 51.414C52.7541 52.1164 53.9834 52.6431 55.2127 53.0529C55.8566 53.287 56.6176 53.4626 57.2615 53.3455C58.4908 53.1114 59.6031 52.409 60.3055 51.3554C61.008 50.0677 61.5934 48.7215 62.4129 47.4923C62.7056 47.1411 63.1739 46.3217 63.5837 46.8484C63.7008 47.024 63.7008 47.3752 63.6422 47.6679C63.5837 48.0776 62.8812 49.0727 62.8227 49.2483C62.5885 49.8336 62.53 50.5945 62.1202 51.0628C61.5934 51.7652 61.0665 52.2334 62.0031 53.0529C62.4715 53.5211 62.2373 54.1065 61.4763 54.3991C60.0714 54.9844 58.725 55.5112 57.203 55.8624C55.6225 56.2136 54.4517 55.8039 53.3395 54.7503C52.0516 53.5211 50.5296 52.9358 48.832 52.6432C48.1296 52.5261 47.4856 52.0578 47.31 51.5896C46.8417 50.3604 46.0222 49.3653 45.2612 48.3118C45.027 47.902 44.8514 47.4338 44.7929 46.907C44.7343 46.2046 44.7929 45.4437 45.8466 46.2046C46.0807 46.3802 46.2563 46.6143 46.549 46.3802C46.7832 46.1461 46.6661 45.8534 46.549 45.6193C46.3734 44.9169 46.0807 44.156 45.9636 43.4536C45.9051 43.0438 45.788 42.4585 46.3149 42.3415C46.9588 42.1659 47.4856 43.5121 47.7198 44.4486C47.8369 44.8583 47.8954 45.4437 48.0125 46.3802C48.1296 47.2582 48.4222 48.1362 48.832 48.8971C49.3589 50.0092 50.4711 50.7701 51.4662 51.414H51.5833ZM72.3059 24.8403C71.4278 24.9573 68.9692 26.3621 68.7351 27.8254C68.4424 29.4643 69.2619 31.4544 68.8521 32.0398C68.0911 33.0933 63.6422 33.5031 61.8275 33.0933C59.8958 32.4495 58.0225 32.5665 58.6665 30.5764C58.7835 30.1667 58.9591 29.6985 58.5494 29.3473C58.0811 28.9961 57.4371 28.879 57.0274 29.2887C56.5005 29.8155 55.7395 30.2253 55.7395 31.1032C55.7395 32.2739 54.9785 32.6251 53.9834 32.9177C51.9931 33.5616 49.9442 33.9713 48.1296 34.8493C46.6076 35.5517 37.3585 35.8444 36.9487 34.2055C36.8316 33.7372 36.5975 33.2689 35.9536 33.4445C35.5438 33.5616 34.1389 32.6836 33.7877 32.9763C33.7291 33.0348 34.4901 34.3225 34.6072 34.4396C35.4267 35.4346 35.2511 36.1956 33.9633 36.2541C32.6169 36.3126 31.8559 37.1906 30.9778 37.9515C30.3924 38.4783 29.807 38.9466 29.2802 39.4148C29.1046 39.5904 28.8704 39.8246 28.5777 39.7075C28.168 39.5319 28.285 39.1222 28.4021 38.888C29.1631 37.6589 28.6363 35.4932 30.9778 35.3761C31.2705 35.3761 31.7973 34.4981 31.7973 34.2055C31.7973 33.1519 30.0412 33.0933 29.2217 34.4981C28.6948 35.4346 27.9338 36.1956 27.1728 37.015C26.8216 37.4247 26.2362 37.7759 25.7094 37.3662C25.2411 37.015 25.7094 36.5467 25.885 36.0785C26.2947 35.0834 27.407 34.3225 26.8216 32.9177C26.646 32.508 27.407 31.2203 28.5192 31.3374C28.929 31.3374 29.5144 31.1618 29.6314 30.6935C29.9827 28.8205 27.3484 30.2838 26.4704 31.7471C25.8264 32.7421 25.2996 33.8543 24.2459 34.4981C23.9532 34.6737 23.4849 34.9078 23.1922 34.6152C22.7239 34.2055 23.1922 33.9128 23.4264 33.7372C23.7776 33.4445 23.602 33.1519 23.4264 32.8592C23.3678 32.6251 23.1922 32.6836 23.0751 32.8592C21.9629 34.4396 20.3824 33.6201 19.036 33.5616C16.753 33.4445 14.5285 33.0348 12.2455 33.2689C12.0699 33.2689 11.7187 33.2689 11.7187 33.0348C11.7187 32.7421 12.0114 32.7421 12.187 32.8007C13.1821 32.9763 13.9431 32.3324 14.8212 32.0983C16.6945 31.513 18.5677 30.2253 20.3824 32.2739C20.7336 32.6251 21.319 32.6251 21.6117 32.2739C22.7824 30.8106 23.9532 28.9375 25.4167 27.6498C26.2947 26.8889 24.1874 25.3085 23.7191 26.3621C23.2507 27.3572 22.7239 28.7619 22.1385 29.6399C21.8458 30.0497 21.4946 30.635 20.8507 30.4594C20.2653 30.2253 18.0994 30.1082 16.6945 30.2253C14.0017 30.4009 11.4845 29.9326 9.08446 28.9375C8.67469 28.7619 6.97708 28.9375 6.45024 29.2302C5.74778 29.5814 3.58186 30.4009 3.81601 29.2302C4.05016 28.1766 4.57701 27.2401 4.69409 26.128C4.69409 25.7768 4.98678 25.4841 5.33801 25.4841C6.97708 25.3671 7.91369 24.0794 9.08446 23.3184C10.1967 22.616 10.8406 24.1379 10.0796 24.6061C8.90885 25.3085 9.78692 25.7183 10.3138 26.0695C11.6602 26.9474 13.2407 27.006 14.8212 27.123C15.4651 27.1816 16.1091 27.123 16.0505 28.2937C15.992 29.3473 17.3384 29.5229 18.2164 28.5863C19.036 27.7084 19.3872 26.0695 20.4994 25.0744C20.9678 24.6061 21.7873 24.255 21.9629 23.6111C22.4897 22.0307 23.6605 21.4454 25.124 22.3234C25.4752 22.5575 26.1191 22.9087 26.2362 22.4405C26.646 21.0942 27.524 21.7381 27.9924 22.0893C29.1631 22.9087 30.3339 22.5575 31.6217 22.499C32.7925 22.4405 34.1389 23.2599 34.6657 21.4454C34.7828 21.0942 35.2511 21.3283 35.5438 21.4454C35.778 21.5039 36.1292 21.6795 36.3048 21.4454C37.7683 19.9236 39.7586 19.2212 41.5147 18.1091C43.6221 16.7043 45.6709 14.8898 48.5393 15.241C49.1247 15.2995 49.1832 14.8312 49.1247 14.48C48.5393 12.3144 46.0222 11.4949 44.2075 12.9582C43.7392 13.3679 43.0953 13.4265 42.5099 13.485C40.6366 13.6021 38.7049 13.8362 37.0658 14.7142C35.4267 15.6507 33.6706 15.7678 31.9144 16.0604C31.329 16.1775 30.7437 16.119 30.1583 16.4701C29.7485 16.7043 29.1631 16.9384 28.8119 16.4701C28.4021 15.9434 26.7631 14.0703 26.0606 12.9582C25.4167 11.9632 24.4215 11.0852 23.2507 10.5584C22.9581 10.4413 22.5483 10.1487 22.3727 10.4413C22.1385 10.734 22.3141 11.2022 22.6068 11.4364C22.7824 11.612 23.0751 11.6705 23.3093 11.8461C23.602 12.1388 24.2459 12.3144 24.0117 12.7826C23.7191 13.3679 21.7873 15.241 17.0457 12.0217C16.4018 11.5534 16.5188 10.9096 16.8115 10.3243C17.0457 9.91453 17.3969 9.5048 16.6359 9.21214C15.1725 8.62681 13.709 9.97306 14.1188 11.4949C14.5871 13.3679 14.4115 15.241 14.9383 17.114C15.1725 17.8749 15.1139 18.7529 15.1139 19.5138C15.1139 19.748 14.9968 20.1577 14.6456 19.748C14.1188 19.0456 13.1821 18.9285 12.7724 18.0505C11.7187 15.9434 10.7235 13.7777 9.31862 11.7876C8.61616 10.851 8.382 9.73893 8.32346 8.56828C8.32346 8.04149 8.32346 7.45617 7.97223 7.10497C6.80147 5.93432 8.14785 3.00771 8.90885 2.18825C9.49423 1.5444 10.4308 1.25174 11.3089 1.13467C12.2455 1.07614 13.0651 1.66146 13.9431 1.95412C15.8164 2.59798 17.4554 3.82716 18.0994 5.75873L18.3335 5.99286C19.6214 5.46607 20.7921 5.05634 22.08 4.76368C23.3093 4.41248 24.5386 4.93927 25.2996 5.87579C25.7094 6.40258 26.5289 6.69525 28.0509 6.57818C29.5729 6.46112 33.6706 6.46112 35.778 6.87084C37.8853 7.28057 38.061 7.39763 39.1732 7.6903C42.9196 8.62681 51.876 10.3828 52.1687 10.9096C52.4614 11.4364 51.2906 12.1388 50.2955 11.9632C49.8857 11.9046 49.2418 11.9046 49.1247 12.2558C49.0076 12.7826 49.6516 12.7826 50.0613 12.9582C51.1735 13.5435 51.2906 14.0118 50.2955 14.8312C49.0076 15.8848 47.5442 16.7043 46.1978 17.6993C44.8514 18.6358 43.2709 19.4553 41.7489 20.0992C40.4025 20.6259 39.4073 21.621 38.178 22.2649C37.8268 22.4405 37.7097 22.8502 37.7683 23.2599C37.8268 23.6111 38.178 23.5526 38.4122 23.6111C40.8708 24.0208 44.7929 22.0893 46.0222 19.8065C46.7832 18.4017 48.5393 17.9335 49.8857 18.8114C50.2369 19.0456 50.2369 19.0456 50.2955 18.3432C50.4125 17.114 50.7052 16.8213 51.4662 16.8213C51.7004 16.8213 52.1102 16.9384 52.4614 17.0555C52.7541 17.1725 54.5688 17.6408 54.3346 19.3968C54.159 20.6845 54.159 20.8601 53.5736 21.9137C52.9297 23.0843 51.3492 23.5526 50.0613 23.4355C49.4174 23.4355 48.7735 23.6111 48.1296 23.5526C46.6661 23.377 45.3197 24.7232 43.8563 24.0208C43.2709 23.7282 42.6269 23.2014 42.2172 24.1379C41.8659 24.8988 42.5684 25.4256 43.1538 25.6597C46.4319 27.2401 49.7101 27.7084 52.9882 25.5427C53.9834 24.9573 54.9785 24.9573 55.2127 25.0159C56.7347 25.1915 56.7932 24.5476 56.0908 23.4355C55.9737 23.2599 55.7395 23.0843 55.9152 22.8502C56.0908 22.5575 56.3835 22.616 56.6176 22.6746C56.9688 22.7331 57.2615 22.8502 57.6128 23.0843C58.8421 24.0794 60.4226 24.4305 61.9446 24.1964C63.8178 23.9623 65.6325 23.8452 67.096 25.4256C67.2716 25.6012 67.5643 25.8353 67.7984 25.6012C68.0326 25.3671 67.7399 25.1329 67.6814 24.8988C67.3887 23.9038 64.5788 22.0893 63.9935 21.7966C62.1788 21.0357 60.5397 20.0406 58.7835 19.2797C57.0274 18.5188 55.5639 17.3481 54.92 15.5336C54.8615 15.358 55.0371 15.1239 55.2127 15.241C56.5005 15.7678 58.0225 16.4116 59.9543 16.9969C61.4178 17.4067 64.6374 18.3432 65.2813 18.6358C66.9204 19.3968 68.2082 20.3333 69.8473 21.0357C71.0181 21.5625 73.301 22.1478 74.9987 22.616C75.2328 22.616 75.2914 22.9087 75.1743 23.0843C74.7645 23.7867 74.2962 24.4305 72.2474 24.7817L72.3059 24.8403ZM17.0457 22.2649C15.5237 21.8551 15.1725 19.0456 17.9238 20.1577C19.2701 20.6845 23.0751 20.1577 23.0751 20.6259C23.0751 21.2113 22.6068 21.6795 21.7873 21.7381C20.4409 21.7966 20.3824 23.2014 19.797 24.0208C19.3287 24.6647 19.3287 25.6012 18.5677 26.0695C18.2164 26.3036 18.0994 27.006 17.6311 26.8889C17.0457 26.7133 17.4554 26.1865 17.3969 25.7768C17.3969 25.25 16.9286 25.3671 16.753 25.6597C16.2847 26.5962 15.6993 26.0695 15.1725 25.7768C14.3529 25.3085 11.6016 24.7232 11.7187 24.1964C11.8358 23.7282 12.3626 23.7282 12.948 23.8452C14.0017 24.1964 14.6456 22.6746 16.1676 22.9087C16.9871 23.0258 17.9823 23.9623 18.1579 23.4355C18.3335 22.7331 17.514 22.499 16.9871 22.3819L17.0457 22.2649Z" fill="white"/>
<path d="M48.3569 27.4963C46.9438 28.3316 45.2952 28.2719 43.7644 28.5703C40.1728 29.2863 36.699 28.7493 33.343 27.4366C31.4 26.6609 30.458 24.513 28.6916 23.4986C28.4561 23.3793 28.3972 22.8423 28.1029 23.081C27.7496 23.3793 28.1029 23.618 28.3384 23.8566C31.6355 27.9736 35.8747 30.2409 41.1149 30.4199C41.5859 30.4199 42.1158 30.4199 42.5868 30.4199C44.8242 30.3006 46.826 29.5846 48.5924 28.2123C48.769 28.0929 49.0045 27.9736 48.8868 27.6753C48.769 27.4366 48.5335 27.4366 48.3569 27.4963Z" fill="white"/>
</svg>
