<svg width="100" height="19" viewBox="0 0 100 19" fill="none" xmlns="http://www.w3.org/2000/svg">
<g clip-path="url(#clip0_4104_156)">
<path d="M38.4883 9.85561V0.27002H41.3734V9.67127C41.3734 14.023 43.4088 16.2745 47.3464 16.2745C51.7405 16.2745 54.131 13.9176 54.131 9.67127V0.27002H57.016V18.7828H54.3466L53.9217 16.1692C52.4443 17.9862 49.9524 19.0001 46.8898 19.0001C41.3734 19.0001 38.4883 15.8795 38.4883 9.85561Z" fill="#1D1D1B"/>
<path d="M59.4001 0.27002H62.5642L69.3805 15.7676L76.1651 0.27002H79.2594L71.0671 18.7828H67.5861L59.4001 0.27002Z" fill="#1D1D1B"/>
<path d="M79.9632 9.5264C79.9632 3.937 84.0783 0.0527344 90.0133 0.0527344C95.9482 0.0527344 99.9936 3.57491 99.9936 9.05239V10.1057H82.9814V10.3625C82.9814 14.0624 85.7206 16.3535 90.2225 16.3535C93.7733 16.3535 96.056 15.05 96.8676 12.5811H99.7844C98.8333 16.5708 95.2824 19.0067 90.4318 19.0067C84.1417 19.0067 79.9568 15.2343 79.9568 9.53298L79.9632 9.5264ZM96.9754 7.60402C96.6267 4.41102 94.1982 2.66639 90.0513 2.66639C86.1518 2.66639 83.476 4.55585 83.0892 7.60402H96.9754Z" fill="#1D1D1B"/>
<path d="M36.3642 18.7827H33.4348C33.4348 10.1057 26.5931 3.04158 18.1853 3.04158C9.77744 3.04158 2.92943 10.1057 2.92943 18.7827H0C0 8.42689 8.15421 0 18.1853 0C28.2163 0 36.3642 8.42689 36.3642 18.7827Z" fill="#1D1D1B"/>
</g>
<defs>
<clipPath id="clip0_4104_156">
<rect width="100" height="19" fill="white"/>
</clipPath>
</defs>
</svg>
