<svg width="93" height="31" viewBox="0 0 93 31" fill="none" xmlns="http://www.w3.org/2000/svg">
<g clip-path="url(#clip0_4103_79)">
<path d="M21.375 3.97478C22.4434 3.97478 23.3095 3.08499 23.3095 1.98739C23.3095 0.889784 22.4434 0 21.375 0C20.3065 0 19.4404 0.889784 19.4404 1.98739C19.4404 3.08499 20.3065 3.97478 21.375 3.97478Z" fill="#1D1D1B"/>
<path d="M0 6.46721H3.18721L3.55192 8.7804C4.59846 7.44461 6.26343 6.27173 9.05422 6.27173C12.8757 6.27173 15.9519 8.40573 15.9519 14.3027V24.1094H12.3366V14.5634C12.3366 11.2239 10.9253 9.46458 8.24552 9.46458C5.20102 9.46458 3.64706 11.4357 3.64706 14.8077V24.1094H0V6.46721Z" fill="#1D1D1B"/>
<path d="M19.5514 6.46704H23.1985V24.0929H19.5514V6.46704Z" fill="#1D1D1B"/>
<path d="M28.2251 19.3201V9.74151H25.244V6.46721H28.2251V1.54761H31.8404V6.46721H36.2645V9.74151H31.8404V18.9291C31.8404 20.3138 32.3479 20.8188 33.7115 20.8188H36.2645V24.0931H32.887C29.6046 24.0931 28.2251 22.5129 28.2251 19.3038V19.3201Z" fill="#1D1D1B"/>
<path d="M38.6113 27.7256H41.1642C42.5755 27.7256 42.9085 27.3835 43.4159 25.9337L44.0502 24.1743L37.4537 6.46704H41.3386L46.064 19.8575L50.7576 6.46704H54.6108L46.8409 26.8948C45.7627 29.7455 45.0333 30.9999 42.512 30.9999H38.6271V27.7256H38.6113Z" fill="#1D1D1B"/>
<path d="M55.1499 15.2964C55.1499 9.85549 58.6067 6.27168 63.2686 6.27168C65.9484 6.27168 67.7878 7.3794 68.8343 8.95954V0H72.4496V24.1093H69.2942L68.8977 21.4214C67.756 23.0016 65.9801 24.3211 63.2686 24.3211C58.6067 24.3211 55.1499 20.949 55.1499 15.2964ZM68.8502 15.3615C68.8502 11.8103 66.8681 9.43195 63.8553 9.43195C60.8425 9.43195 58.8604 11.8103 58.8604 15.2801C58.8604 18.7499 60.8425 21.1282 63.8553 21.1282C66.8681 21.1282 68.8502 18.7824 68.8502 15.3452V15.3615Z" fill="#1D1D1B"/>
<path d="M75.4941 15.2964C75.4941 9.9207 79.0143 6.27173 84.2471 6.27173C89.4798 6.27173 93 9.9207 93 15.2964C93 20.6721 89.4798 24.3211 84.2471 24.3211C79.0143 24.3211 75.4941 20.7047 75.4941 15.2964ZM89.3054 15.2964C89.3054 11.8918 87.2916 9.44829 84.2471 9.44829C81.2026 9.44829 79.2205 11.8918 79.2205 15.2964C79.2205 18.7011 81.2026 21.1446 84.2471 21.1446C87.2916 21.1446 89.3054 18.7011 89.3054 15.2964Z" fill="#1D1D1B"/>
</g>
<defs>
<clipPath id="clip0_4103_79">
<rect width="93" height="31" fill="white"/>
</clipPath>
</defs>
</svg>
