<svg width="120" height="11" viewBox="0 0 120 11" fill="none" xmlns="http://www.w3.org/2000/svg">
<g clip-path="url(#clip0_4104_89)">
<path d="M23.7347 10.9924V0H36.2096V1.87266H26.572V4.32692H32.1976V6.19958H26.572V8.92484H36.3261V10.9939H23.7364L23.7347 10.9924ZM46.2811 10.9924V0H49.1167V8.92332H58.2598V10.9924H46.2811ZM67.1329 10.9924V0H69.9685V8.92332H79.1116V10.9924H67.1329ZM93.6036 1.96554V10.9924H90.768V1.96554H85.1761V0H99.2191V1.96554H93.6036ZM107.41 10.9924V0H119.885V1.87266H110.248V4.32692H115.873V6.19958H110.248V8.92484H120.002V10.9939H107.412L107.41 10.9924ZM15.7123 0H12.8159L8.02746 7.70837L3.24238 0H0L7.0485 11H9.00979L16.0583 0H15.7123Z" fill="#1D1D1B"/>
</g>
<defs>
<clipPath id="clip0_4104_89">
<rect width="120" height="11" fill="white"/>
</clipPath>
</defs>
</svg>
